# This file was created by OSM2World 0.5.0-SNAPSHOT - https://osm2world.org

# Projection information:
# Coordinate origin (0,0,0): lat 48.749337350000005, lon 11.4324595, ele 0
# North direction: (0.0, 0.0, -1.0)
# 1 coordinate unit corresponds to roughly 1 m in reality

mtllib scene.obj.mtl

g RetainingWall
o RetainingWall0
vn  0.0 1.0 0.0
usemtl MAT_0_0
v  -5397.816880200934 0.0 -5545.262702779566
v  -5398.165119799066 0.0 -5544.325297220434
v  -5308.673880200934 0.0 -5512.146702779566
f 1//1 2//1 3//1
v  -5309.022119799066 0.0 -5511.209297220434
f 2//1 4//1 3//1
g SurfaceArea
o SurfaceArea1
usemtl MAT_1_0
v  -1114.938 0.0 -1476.085
v  -1113.404 0.0 -1479.103
v  -1128.987 0.0 -1490.182
f 5//1 6//1 7//1
v  -1132.583 0.0 -1493.177
v  -1136.312 0.0 -1490.772
f 7//1 8//1 9//1
v  -1139.549 0.0 -1492.231
v  -1141.134 0.0 -1492.687
f 9//1 10//1 11//1
v  -1142.434 0.0 -1492.699
v  -1142.83 0.0 -1491.541
f 11//1 12//1 13//1
v  -1142.896 0.0 -1490.961
v  -1143.542 0.0 -1485.305
v  -1143.476 0.0 -1485.305
f 14//1 15//1 16//1
v  -1142.808 0.0 -1490.973
v  -1142.749 0.0 -1491.518
f 16//1 17//1 18//1
v  -1141.905 0.0 -1485.116
f 19//1 16//1 15//1
v  -1144.863 0.0 -1475.417
v  -1135.299 0.0 -1473.135
f 15//1 20//1 21//1
v  -1120.818 0.0 -1459.338
v  -1127.35 0.0 -1465.374
v  -1132.378 0.0 -1464.783
f 22//1 23//1 24//1
v  -1139.681 0.0 -1472.812
f 21//1 20//1 25//1
v  -1113.353 0.0 -1460.307
v  -1111.349 0.0 -1460.14
v  -1110.123 0.0 -1464.817
f 26//1 27//1 28//1
f 28//1 5//1 7//1
f 13//1 14//1 16//1
f 19//1 15//1 21//1
f 24//1 21//1 25//1
v  -1122.359 0.0 -1455.263
f 29//1 26//1 28//1
f 13//1 16//1 18//1
v  -1140.21 0.0 -1484.926
f 30//1 19//1 21//1
v  -1136.195 0.0 -1461.22
f 24//1 25//1 31//1
f 11//1 13//1 18//1
v  -1139.49 0.0 -1491.151
f 32//1 30//1 21//1
f 22//1 24//1 31//1
v  -1141.178 0.0 -1491.351
f 11//1 18//1 33//1
v  -1125.133 0.0 -1476.82
f 32//1 21//1 34//1
f 22//1 31//1 29//1
f 11//1 33//1 32//1
v  -1119.342 0.0 -1474.159
f 32//1 34//1 35//1
v  -1114.762 0.0 -1463.291
f 36//1 22//1 29//1
f 9//1 11//1 32//1
f 36//1 29//1 28//1
f 9//1 32//1 35//1
f 35//1 36//1 28//1
f 7//1 9//1 35//1
f 35//1 28//1 7//1
o SurfaceArea Theaterplatz
v  -318.251 0.0 -1563.929
v  -324.02 0.0 -1565.098
v  -340.08 0.0 -1559.976
f 37//1 38//1 39//1
v  -388.868 0.0 -1542.706
v  -386.453 0.0 -1537.506
f 39//1 40//1 41//1
v  -383.128 0.0 -1531.047
v  -382.556 0.0 -1529.422
v  -381.792 0.0 -1527.618
f 42//1 43//1 44//1
v  -381.183 0.0 -1525.992
v  -380.53 0.0 -1524.3
f 44//1 45//1 46//1
v  -379.811 0.0 -1522.607
v  -378.966 0.0 -1519.667
v  -377.631 0.0 -1515.848
f 47//1 48//1 49//1
v  -376.236 0.0 -1512.552
v  -374.834 0.0 -1508.989
v  -373.623 0.0 -1507.764
f 50//1 51//1 52//1
v  -364.052 0.0 -1506.773
v  -357.24 0.0 -1506.072
f 52//1 53//1 54//1
v  -328.255 0.0 -1493.767
v  -317.898 0.0 -1486.051
v  -317.179 0.0 -1489.08
f 55//1 56//1 57//1
v  -319.557 0.0 -1497.498
v  -315.542 0.0 -1498.411
v  -320.9 0.0 -1524.5
f 58//1 59//1 60//1
v  -325.767 0.0 -1543.262
v  -315.161 0.0 -1542.16
f 61//1 62//1 37//1
f 37//1 39//1 41//1
v  -383.818 0.0 -1532.885
f 63//1 42//1 44//1
f 44//1 46//1 47//1
f 47//1 49//1 50//1
f 50//1 52//1 54//1
v  -343.023 0.0 -1501.339
f 64//1 55//1 57//1
v  -324.358 0.0 -1523.943
f 58//1 60//1 65//1
v  -333.026 0.0 -1528.943
f 66//1 61//1 37//1
f 37//1 41//1 63//1
f 63//1 44//1 47//1
f 47//1 50//1 54//1
f 64//1 57//1 58//1
f 58//1 65//1 66//1
f 66//1 37//1 63//1
f 63//1 47//1 54//1
f 54//1 64//1 58//1
f 58//1 66//1 63//1
f 63//1 54//1 58//1
o SurfaceArea2
v  -402.733 0.0 -1682.018
v  -407.886 0.0 -1681.171
v  -326.912 0.0 -1681.427
f 67//1 68//1 69//1
v  -315.594 0.0 -1684.857
v  -291.24 0.0 -1692.151
v  -273.72 0.0 -1697.607
f 70//1 71//1 72//1
v  -269.015 0.0 -1682.641
v  -264.369 0.0 -1669.078
f 72//1 73//1 74//1
v  -264.765 0.0 -1661.484
v  -259.891 0.0 -1651.162
f 74//1 75//1 76//1
v  -268.875 0.0 -1647.02
v  -279.819 0.0 -1645.884
v  -295.673 0.0 -1641.263
f 77//1 78//1 79//1
v  -408.95 0.0 -1680.993
f 69//1 68//1 80//1
v  -419.762 0.0 -1697.273
v  -421.597 0.0 -1719.043
v  -423.821 0.0 -1729.287
f 81//1 82//1 83//1
v  -424.533 0.0 -1736.302
v  -427.938 0.0 -1734.287
f 83//1 84//1 85//1
v  -432.672 0.0 -1731.492
v  -431.116 0.0 -1722.138
f 85//1 86//1 87//1
v  -430.067 0.0 -1715.301
v  -429.325 0.0 -1710.524
f 87//1 88//1 89//1
v  -470.26 0.0 -1669.257
v  -473.115 0.0 -1689.456
v  -476.873 0.0 -1715.457
f 90//1 91//1 92//1
v  -478.613 0.0 -1730.211
v  -481.153 0.0 -1731.648
f 92//1 93//1 94//1
v  -483.252 0.0 -1732.828
v  -484.485 0.0 -1733.519
f 94//1 95//1 96//1
v  -482.576 0.0 -1722.205
v  -482.18 0.0 -1715.279
v  -481.813 0.0 -1709.021
f 97//1 98//1 99//1
v  -480.786 0.0 -1694.367
v  -480.374 0.0 -1688.665
f 99//1 100//1 101//1
v  -486.716 0.0 -1667.185
v  -491.127 0.0 -1666.818
v  -501.352 0.0 -1665.86
f 102//1 103//1 104//1
v  -502.321 0.0 -1665.727
v  -503.202 0.0 -1665.604
f 104//1 105//1 106//1
v  -517.602 0.0 -1663.444
v  -526.616 0.0 -1662.564
v  -531.005 0.0 -1662.13
f 107//1 108//1 109//1
v  -531.387 0.0 -1666.039
v  -545.105 0.0 -1663.8
f 109//1 110//1 111//1
v  -546.382 0.0 -1663.567
v  -558.603 0.0 -1661.306
f 111//1 112//1 113//1
v  -570.31 0.0 -1659.179
v  -594.576 0.0 -1653.222
f 113//1 114//1 115//1
v  -596.829 0.0 -1662.364
v  -595.684 0.0 -1662.642
v  -597.387 0.0 -1669.557
f 116//1 117//1 118//1
v  -599.574 0.0 -1678.12
v  -602.958 0.0 -1690.469
f 118//1 119//1 120//1
v  -610.643 0.0 -1717.84
v  -618.908 0.0 -1725.011
f 120//1 121//1 122//1
v  -625.536 0.0 -1723.452
v  -631.562 0.0 -1722.784
v  -631.371 0.0 -1719.577
f 123//1 124//1 125//1
v  -626.541 0.0 -1705.847
v  -621.022 0.0 -1707.518
f 125//1 126//1 127//1
v  -617.146 0.0 -1694.712
v  -615.142 0.0 -1695.235
f 127//1 128//1 129//1
v  -624.486 0.0 -1657.498
v  -624.618 0.0 -1658.545
v  -637.588 0.0 -1655.972
f 130//1 131//1 132//1
v  -660.76 0.0 -1651.373
v  -661.354 0.0 -1654.347
v  -669.678 0.0 -1652.687
f 133//1 134//1 135//1
v  -677.524 0.0 -1651.14
v  -693.283 0.0 -1648.011
f 135//1 136//1 137//1
v  -706.355 0.0 -1645.683
v  -713.336 0.0 -1644.202
f 137//1 138//1 139//1
v  -723.046 0.0 -1642.131
v  -722.767 0.0 -1641.118
f 139//1 140//1 141//1
v  -742.093 0.0 -1636.864
v  -744.229 0.0 -1636.586
v  -710.201 0.0 -1634.069
f 142//1 143//1 144//1
v  -709.93 0.0 -1633.167
f 145//1 144//1 143//1
v  -741.433 0.0 -1622.6
v  -740.537 0.0 -1616.565
v  -737.146 0.0 -1613.536
f 146//1 147//1 148//1
v  -736.258 0.0 -1614.694
v  -727.443 0.0 -1615.986
v  -724.375 0.0 -1616.554
f 149//1 150//1 151//1
v  -724.566 0.0 -1617.411
v  -712.624 0.0 -1620.796
v  -704.41 0.0 -1623.235
f 152//1 153//1 154//1
v  -688.108 0.0 -1627.689
v  -677.84 0.0 -1630.506
f 154//1 155//1 156//1
v  -649.412 0.0 -1637.432
v  -644.296 0.0 -1638.39
v  -634.813 0.0 -1640.171
f 157//1 158//1 159//1
v  -598.209 0.0 -1628.39
v  -597.446 0.0 -1618.057
v  -596.272 0.0 -1607.701
f 160//1 161//1 162//1
v  -596.169 0.0 -1599.417
v  -596.675 0.0 -1598.247
v  -597.292 0.0 -1596.8
f 163//1 164//1 165//1
v  -596.22 0.0 -1587.524
v  -595.413 0.0 -1581.144
f 165//1 166//1 167//1
v  -594.143 0.0 -1575.454
v  -591.647 0.0 -1563.517
v  -589.049 0.0 -1561.791
f 168//1 169//1 170//1
v  -587.324 0.0 -1560.644
v  -584.241 0.0 -1550.623
v  -582.032 0.0 -1551.313
f 171//1 172//1 173//1
v  -577.1 0.0 -1535.268
v  -574.428 0.0 -1536.058
f 173//1 174//1 175//1
v  -571.191 0.0 -1527.161
v  -565.473 0.0 -1529.355
f 175//1 176//1 177//1
v  -561.554 0.0 -1531.225
v  -564.974 0.0 -1550.868
f 177//1 178//1 179//1
v  -586.098 0.0 -1612.712
v  -585.563 0.0 -1614.36
v  -589.445 0.0 -1615.618
f 180//1 181//1 182//1
v  -589.445 0.0 -1618.636
v  -590.326 0.0 -1626.408
f 182//1 183//1 184//1
v  -593.343 0.0 -1642.788
v  -578.663 0.0 -1637.254
v  -567.719 0.0 -1639.559
f 185//1 186//1 187//1
v  -549.839 0.0 -1645.026
v  -547.747 0.0 -1643.144
v  -510.864 0.0 -1647.342
f 188//1 189//1 190//1
v  -458.391 0.0 -1650.984
v  -450.809 0.0 -1651.83
f 190//1 191//1 192//1
v  -449.29 0.0 -1637.699
v  -445.466 0.0 -1623.803
f 192//1 193//1 194//1
v  -456.057 0.0 -1620.618
v  -465.849 0.0 -1619.237
v  -470.818 0.0 -1617.489
f 195//1 196//1 197//1
v  -471.589 0.0 -1613.959
v  -469.9 0.0 -1605.686
f 197//1 198//1 199//1
v  -469.233 0.0 -1604.416
v  -468.543 0.0 -1603.102
v  -464.88 0.0 -1604.171
f 200//1 201//1 202//1
v  -441.825 0.0 -1610.34
v  -438.067 0.0 -1601.577
v  -434.992 0.0 -1595.352
f 203//1 204//1 205//1
v  -433.406 0.0 -1589.785
v  -431.227 0.0 -1590.464
f 205//1 206//1 207//1
v  -429.531 0.0 -1585.03
v  -426.837 0.0 -1575.621
v  -421.259 0.0 -1578.928
f 208//1 209//1 210//1
v  -415.343 0.0 -1582.436
v  -419.703 0.0 -1595.085
f 210//1 211//1 212//1
v  -420.547 0.0 -1596.421
v  -421.486 0.0 -1597.891
f 212//1 213//1 214//1
v  -425.024 0.0 -1607.133
v  -423.982 0.0 -1607.534
v  -427.256 0.0 -1616.676
f 215//1 216//1 217//1
v  -423.013 0.0 -1659.38
v  -409.926 0.0 -1662.23
v  -393.896 0.0 -1666.083
f 218//1 219//1 220//1
v  -392.156 0.0 -1666.139
v  -389.602 0.0 -1666.284
f 220//1 221//1 222//1
v  -364.742 0.0 -1671.673
v  -360.844 0.0 -1672.619
f 222//1 223//1 224//1
v  -350.062 0.0 -1675.548
v  -336.879 0.0 -1679.2
f 224//1 225//1 226//1
v  -328.585 0.0 -1650.494
v  -329.011 0.0 -1650.304
v  -327.352 0.0 -1645.049
f 227//1 228//1 229//1
v  -326.912 0.0 -1645.193
v  -317.172 0.0 -1615.574
v  -312.966 0.0 -1615.028
f 230//1 231//1 232//1
v  -309.575 0.0 -1614.583
v  -313.928 0.0 -1625.039
f 232//1 233//1 234//1
v  -287.607 0.0 -1635.973
v  -281.845 0.0 -1634.526
v  -261.014 0.0 -1643.646
f 235//1 236//1 237//1
v  -259.187 0.0 -1644.303
v  -250.65 0.0 -1648.623
f 237//1 238//1 239//1
v  -244.074 0.0 -1651.952
v  -243.009 0.0 -1652.654
f 239//1 240//1 241//1
v  -236.844 0.0 -1655.772
v  -227.412 0.0 -1660.983
f 241//1 242//1 243//1
v  -228.454 0.0 -1663.099
v  -230.466 0.0 -1667.185
v  -241.505 0.0 -1662.197
f 244//1 245//1 246//1
v  -256.478 0.0 -1655.104
v  -264.427 0.0 -1681.294
v  -270.329 0.0 -1698.821
f 247//1 248//1 249//1
v  -254.306 0.0 -1703.988
v  -240.462 0.0 -1708.742
f 249//1 250//1 251//1
v  -230.642 0.0 -1711.693
v  -231.163 0.0 -1718.954
f 251//1 252//1 253//1
v  -231.596 0.0 -1725.056
v  -243.743 0.0 -1721.838
f 253//1 254//1 255//1
v  -258.849 0.0 -1717.072
v  -265.543 0.0 -1715.602
v  -270.747 0.0 -1714.043
f 256//1 257//1 258//1
v  -336.131 0.0 -1696.616
v  -352.161 0.0 -1755.812
v  -358.062 0.0 -1755.745
f 259//1 260//1 261//1
v  -363.259 0.0 -1755.689
v  -360.485 0.0 -1746.692
f 261//1 262//1 263//1
v  -355.273 0.0 -1731.96
v  -353.086 0.0 -1724.221
v  -350.363 0.0 -1717.762
f 264//1 265//1 266//1
v  -344.645 0.0 -1695.469
v  -364.088 0.0 -1690.837
v  -393.749 0.0 -1683.666
f 267//1 268//1 269//1
f 269//1 67//1 69//1
f 69//1 70//1 72//1
v  -295.336 0.0 -1640.561
f 77//1 79//1 270//1
v  -417.163 0.0 -1679.768
f 69//1 80//1 271//1
f 81//1 83//1 85//1
f 85//1 87//1 89//1
f 90//1 92//1 94//1
f 94//1 96//1 97//1
f 97//1 99//1 101//1
f 102//1 104//1 106//1
f 109//1 111//1 113//1
f 116//1 118//1 120//1
f 120//1 122//1 123//1
f 123//1 125//1 127//1
v  -646.748 0.0 -1654.146
f 130//1 132//1 272//1
f 133//1 135//1 137//1
f 137//1 139//1 141//1
v  -728.023 0.0 -1639.96
f 273//1 142//1 144//1
v  -709.1 0.0 -1632.733
f 274//1 145//1 143//1
f 143//1 146//1 148//1
f 149//1 151//1 152//1
v  -672.452 0.0 -1631.998
f 154//1 156//1 275//1
f 163//1 165//1 167//1
f 167//1 168//1 170//1
f 173//1 175//1 177//1
v  -569.018 0.0 -1550.166
f 177//1 179//1 276//1
v  -584.953 0.0 -1595.185
f 277//1 180//1 182//1
f 182//1 184//1 185//1
v  -568.086 0.0 -1641.274
f 185//1 187//1 278//1
f 188//1 190//1 192//1
f 195//1 197//1 199//1
f 199//1 200//1 202//1
f 203//1 205//1 207//1
f 207//1 208//1 210//1
f 210//1 212//1 214//1
v  -429.781 0.0 -1615.039
f 215//1 217//1 279//1
f 220//1 222//1 224//1
f 227//1 229//1 230//1
f 230//1 232//1 234//1
f 235//1 237//1 239//1
f 239//1 241//1 243//1
f 243//1 244//1 246//1
f 249//1 251//1 253//1
v  -251.186 0.0 -1719.466
f 253//1 255//1 280//1
v  -286.168 0.0 -1709.667
f 256//1 258//1 281//1
f 259//1 261//1 263//1
f 267//1 269//1 69//1
v  -311.872 0.0 -1634.359
f 77//1 270//1 282//1
f 271//1 81//1 85//1
v  -425.788 0.0 -1675.916
f 85//1 89//1 283//1
f 90//1 94//1 97//1
v  -477.16 0.0 -1689.033
f 97//1 101//1 284//1
f 102//1 106//1 107//1
f 109//1 113//1 115//1
f 116//1 120//1 123//1
f 123//1 127//1 129//1
f 130//1 272//1 133//1
f 133//1 137//1 141//1
f 141//1 273//1 144//1
f 143//1 148//1 149//1
f 149//1 152//1 154//1
v  -659.791 0.0 -1635.472
f 154//1 275//1 285//1
f 162//1 163//1 167//1
f 167//1 170//1 171//1
f 171//1 173//1 177//1
v  -572.63 0.0 -1550.278
f 177//1 276//1 286//1
v  -584.153 0.0 -1583.85
f 287//1 277//1 182//1
f 185//1 278//1 188//1
f 194//1 195//1 199//1
v  -465.357 0.0 -1605.875
f 199//1 202//1 288//1
f 203//1 207//1 210//1
f 210//1 214//1 215//1
f 220//1 224//1 226//1
f 226//1 227//1 230//1
f 235//1 239//1 243//1
v  -249.168 0.0 -1658.478
f 243//1 246//1 289//1
f 249//1 253//1 280//1
f 259//1 263//1 264//1
f 266//1 267//1 69//1
f 271//1 85//1 283//1
f 90//1 97//1 284//1
v  -474.892 0.0 -1668.488
f 290//1 102//1 107//1
f 107//1 109//1 115//1
f 115//1 116//1 123//1
v  -709.754 0.0 -1634.893
f 141//1 144//1 291//1
f 274//1 143//1 149//1
f 149//1 154//1 285//1
f 162//1 167//1 171//1
f 171//1 177//1 286//1
v  -582.81 0.0 -1574.296
f 292//1 287//1 182//1
f 185//1 188//1 192//1
f 194//1 199//1 288//1
v  -445.899 0.0 -1617.389
f 293//1 203//1 210//1
f 210//1 215//1 279//1
f 226//1 230//1 234//1
f 234//1 235//1 243//1
f 243//1 289//1 247//1
f 249//1 280//1 256//1
f 259//1 264//1 266//1
f 69//1 271//1 283//1
f 90//1 284//1 290//1
f 290//1 107//1 115//1
f 115//1 123//1 129//1
f 133//1 141//1 291//1
v  -708.205 0.0 -1633.0
f 294//1 274//1 149//1
f 160//1 162//1 171//1
v  -580.616 0.0 -1566.891
f 171//1 286//1 295//1
v  -458.986 0.0 -1609.817
f 194//1 288//1 296//1
f 293//1 210//1 279//1
f 249//1 256//1 281//1
f 259//1 266//1 69//1
v  -440.005 0.0 -1673.399
f 69//1 283//1 297//1
v  -449.635 0.0 -1672.007
f 298//1 90//1 290//1
v  -613.021 0.0 -1688.008
f 115//1 129//1 299//1
v  -708.866 0.0 -1635.161
f 133//1 291//1 300//1
f 294//1 149//1 285//1
v  -599.986 0.0 -1645.082
f 301//1 160//1 171//1
f 171//1 295//1 292//1
f 194//1 296//1 293//1
v  -434.625 0.0 -1624.827
f 293//1 279//1 302//1
v  -296.972 0.0 -1706.783
f 249//1 281//1 303//1
v  -316.43 0.0 -1701.727
f 304//1 259//1 69//1
f 69//1 297//1 298//1
v  -605.476 0.0 -1662.208
f 115//1 299//1 305//1
f 130//1 133//1 300//1
v  -707.765 0.0 -1633.824
f 306//1 294//1 285//1
f 301//1 171//1 292//1
f 194//1 293//1 302//1
f 249//1 303//1 304//1
f 304//1 69//1 72//1
f 69//1 298//1 290//1
v  -616.801 0.0 -1658.89
f 115//1 305//1 307//1
f 307//1 130//1 300//1
v  -708.036 0.0 -1634.726
f 308//1 306//1 285//1
f 301//1 292//1 182//1
f 192//1 194//1 302//1
f 249//1 304//1 72//1
f 69//1 290//1 115//1
f 115//1 307//1 300//1
f 300//1 308//1 285//1
f 301//1 182//1 185//1
v  -439.051 0.0 -1641.084
f 192//1 302//1 309//1
f 247//1 249//1 72//1
f 69//1 115//1 300//1
f 300//1 285//1 157//1
f 301//1 185//1 192//1
v  -440.475 0.0 -1654.58
f 192//1 309//1 310//1
f 247//1 72//1 74//1
f 300//1 157//1 159//1
f 301//1 192//1 310//1
f 247//1 74//1 76//1
v  -619.378 0.0 -1642.655
f 300//1 159//1 311//1
v  -433.113 0.0 -1657.008
f 301//1 310//1 312//1
f 243//1 247//1 76//1
f 69//1 300//1 311//1
f 301//1 312//1 218//1
f 234//1 243//1 76//1
f 69//1 311//1 301//1
f 301//1 218//1 220//1
f 234//1 76//1 77//1
f 301//1 220//1 226//1
f 234//1 77//1 282//1
f 69//1 301//1 226//1
f 226//1 234//1 282//1
v  -321.055 0.0 -1662.386
f 313//1 69//1 226//1
v  -318.405 0.0 -1654.068
f 226//1 282//1 314//1
f 314//1 313//1 226//1
o SurfaceArea3
v  -856.207 0.0 -1229.063
v  -858.387 0.0 -1230.578
v  -864.354 0.0 -1222.739
f 315//1 316//1 317//1
v  -886.638 0.0 -1221.091
v  -894.807 0.0 -1219.443
f 317//1 318//1 319//1
v  -900.635 0.0 -1215.824
v  -903.791 0.0 -1210.68
f 319//1 320//1 321//1
v  -904.511 0.0 -1203.51
v  -894.316 0.0 -1202.653
f 321//1 322//1 323//1
v  -893.89 0.0 -1199.379
f 324//1 323//1 322//1
v  -902.353 0.0 -1197.386
v  -899.263 0.0 -1194.124
f 322//1 325//1 326//1
v  -895.35 0.0 -1191.351
v  -890.535 0.0 -1189.603
f 326//1 327//1 328//1
v  -885.185 0.0 -1189.369
v  -878.527 0.0 -1192.142
f 328//1 329//1 330//1
v  -874.05 0.0 -1196.395
v  -860.625 0.0 -1216.515
f 330//1 331//1 332//1
v  -853.447 0.0 -1227.115
f 332//1 333//1 315//1
f 317//1 319//1 321//1
v  -894.169 0.0 -1205.135
f 321//1 323//1 334//1
v  -891.556 0.0 -1197.019
f 335//1 324//1 322//1
f 322//1 326//1 328//1
f 328//1 330//1 332//1
f 332//1 315//1 317//1
v  -892.818 0.0 -1207.251
f 321//1 334//1 336//1
f 335//1 322//1 328//1
f 332//1 317//1 321//1
v  -889.86 0.0 -1209.589
f 321//1 336//1 337//1
v  -888.671 0.0 -1195.749
f 338//1 335//1 328//1
f 332//1 321//1 337//1
v  -885.765 0.0 -1195.593
f 339//1 338//1 328//1
v  -885.06 0.0 -1210.547
f 332//1 337//1 340//1
v  -881.368 0.0 -1197.92
f 341//1 339//1 328//1
v  -873.309 0.0 -1211.17
f 332//1 340//1 342//1
f 341//1 328//1 332//1
v  -872.611 0.0 -1209.89
f 332//1 342//1 343//1
f 343//1 341//1 332//1
o SurfaceArea Viktualienmarkt
v  -437.906 0.0 -1533.163
v  -458.23 0.0 -1524.389
v  -429.355 0.0 -1524.901
f 344//1 345//1 346//1
v  -423.182 0.0 -1528.007
v  -416.679 0.0 -1531.281
f 346//1 347//1 348//1
v  -407.203 0.0 -1528.887
v  -413.794 0.0 -1525.569
v  -420.297 0.0 -1522.295
f 349//1 350//1 351//1
v  -442.471 0.0 -1518.186
f 346//1 345//1 352//1
v  -436.298 0.0 -1521.293
v  -429.795 0.0 -1524.578
f 352//1 353//1 354//1
v  -429.333 0.0 -1514.835
v  -423.138 0.0 -1518.031
v  -416.994 0.0 -1521.204
f 355//1 356//1 357//1
v  -410.521 0.0 -1524.545
v  -404.377 0.0 -1527.718
f 357//1 358//1 359//1
v  -395.158 0.0 -1525.268
v  -401.471 0.0 -1521.972
v  -407.607 0.0 -1518.765
f 360//1 361//1 362//1
v  -414.058 0.0 -1515.392
v  -420.18 0.0 -1512.185
f 362//1 363//1 364//1
v  -439.587 0.0 -1512.463
f 365//1 352//1 345//1
v  -436.731 0.0 -1510.971
v  -430.537 0.0 -1514.178
f 345//1 366//1 367//1
v  -421.398 0.0 -1508.655
v  -414.925 0.0 -1511.995
v  -408.774 0.0 -1515.169
f 368//1 369//1 370//1
v  -418.455 0.0 -1502.831
v  -424.584 0.0 -1499.636
v  -430.735 0.0 -1496.418
f 371//1 372//1 373//1
v  -441.767 0.0 -1490.884
v  -438.838 0.0 -1491.351
v  -410.726 0.0 -1505.448
f 374//1 375//1 376//1
v  -398.968 0.0 -1517.284
v  -386.908 0.0 -1523.019
v  -387.906 0.0 -1525.446
f 377//1 378//1 379//1
v  -390.057 0.0 -1529.856
v  -391.987 0.0 -1533.82
v  -394.74 0.0 -1537.851
f 380//1 381//1 382//1
v  -397.111 0.0 -1541.047
v  -399.87 0.0 -1543.919
f 382//1 383//1 384//1
v  -402.572 0.0 -1546.068
v  -404.047 0.0 -1547.037
f 384//1 385//1 386//1
v  -408.524 0.0 -1549.687
v  -414.609 0.0 -1546.202
f 386//1 387//1 388//1
v  -427.234 0.0 -1538.73
f 389//1 344//1 346//1
v  -410.088 0.0 -1534.611
f 346//1 348//1 390//1
v  -426.47 0.0 -1519.177
f 349//1 351//1 391//1
f 346//1 352//1 354//1
f 355//1 357//1 359//1
f 360//1 362//1 364//1
v  -400.568 0.0 -1519.434
f 368//1 370//1 392//1
v  -399.863 0.0 -1511.494
f 374//1 376//1 393//1
f 377//1 379//1 380//1
f 380//1 382//1 384//1
f 384//1 386//1 388//1
f 388//1 389//1 346//1
f 391//1 346//1 354//1
v  -398.043 0.0 -1530.992
f 355//1 359//1 394//1
v  -426.331 0.0 -1508.967
f 360//1 364//1 395//1
v  -427.535 0.0 -1505.481
f 396//1 368//1 392//1
v  -397.015 0.0 -1513.075
f 374//1 393//1 397//1
f 380//1 384//1 388//1
f 388//1 346//1 390//1
v  -426.911 0.0 -1518.855
f 391//1 354//1 398//1
v  -403.746 0.0 -1537.806
f 388//1 390//1 399//1
f 349//1 391//1 398//1
f 380//1 388//1 399//1
v  -400.854 0.0 -1532.094
f 400//1 349//1 398//1
f 380//1 399//1 400//1
f 355//1 365//1 367//1
v  -427.586 0.0 -1508.332
f 355//1 367//1 401//1
v  -433.737 0.0 -1505.114
f 402//1 366//1 345//1
v  -433.729 0.0 -1502.275
f 373//1 403//1 345//1
v  -433.414 0.0 -1515.581
f 398//1 404//1 365//1
f 365//1 355//1 394//1
f 395//1 355//1 401//1
f 402//1 345//1 403//1
f 373//1 345//1 374//1
f 398//1 365//1 394//1
f 395//1 401//1 402//1
f 402//1 403//1 396//1
f 373//1 374//1 397//1
f 400//1 398//1 394//1
f 395//1 402//1 396//1
f 371//1 373//1 397//1
f 380//1 400//1 394//1
f 360//1 395//1 396//1
v  -412.003 0.0 -1506.205
f 405//1 371//1 397//1
f 380//1 394//1 360//1
f 360//1 396//1 392//1
v  -405.874 0.0 -1509.412
f 406//1 405//1 397//1
f 377//1 380//1 360//1
v  -397.639 0.0 -1513.855
f 407//1 406//1 397//1
f 377//1 360//1 392//1
f 392//1 407//1 397//1
f 397//1 377//1 392//1
o SurfaceArea Josef-Strobl-Platz
usemtl MAT_2_0
v  -546.911 0.0 -1907.623
v  -528.693 0.0 -1830.197
v  -521.786 0.0 -1830.843
f 408//1 409//1 410//1
v  -515.136 0.0 -1934.383
v  -519.092 0.0 -1938.848
f 410//1 411//1 412//1
v  -535.754 0.0 -1937.478
v  -552.636 0.0 -1935.619
f 412//1 413//1 414//1
v  -550.595 0.0 -1925.262
v  -547.975 0.0 -1911.955
f 415//1 416//1 408//1
f 408//1 410//1 412//1
f 412//1 414//1 415//1
f 415//1 408//1 412//1
o SurfaceArea4
usemtl MAT_3_0
v  -2540.861 0.0 2421.949
v  -2528.611 0.0 2429.95
v  -2517.659 0.0 2413.237
f 417//1 418//1 419//1
v  -2530.233 0.0 2406.138
f 419//1 420//1 417//1
o SurfaceArea5
usemtl MAT_1_0
v  139.979 0.0 257.793
v  138.893 0.0 256.869
v  137.873 0.0 258.539
f 421//1 422//1 423//1
v  134.724 0.0 264.027
v  129.248 0.0 274.401
f 423//1 424//1 425//1
v  124.411 0.0 283.384
v  121.996 0.0 282.928
v  121.923 0.0 286.145
f 426//1 427//1 428//1
v  121.321 0.0 310.5
v  132.118 0.0 305.836
f 428//1 429//1 430//1
v  132.419 0.0 297.287
v  128.808 0.0 291.321
f 430//1 431//1 432//1
v  133.366 0.0 285.132
v  135.979 0.0 283.028
v  138.636 0.0 280.88
f 433//1 434//1 435//1
v  146.923 0.0 276.171
v  153.991 0.0 271.273
f 435//1 436//1 437//1
v  147.473 0.0 264.105
f 437//1 438//1 421//1
f 421//1 423//1 425//1
v  126.144 0.0 283.396
f 439//1 426//1 428//1
f 428//1 430//1 432//1
f 435//1 437//1 421//1
f 421//1 425//1 439//1
f 439//1 428//1 432//1
f 433//1 435//1 421//1
f 421//1 439//1 432//1
f 432//1 433//1 421//1
o SurfaceArea Schliffelmarkt
v  -577.166 0.0 -1616.988
v  -574.428 0.0 -1618.836
f 440//1 441//1 186//1
f 186//1 185//1 184//1
f 183//1 182//1 181//1
v  -579.97 0.0 -1615.062
f 181//1 442//1 440//1
f 440//1 186//1 184//1
f 184//1 183//1 181//1
f 181//1 440//1 184//1
o SurfaceArea6
usemtl MAT_2_0
v  -464.271 0.0 -1521.828
v  -467.875 0.0 -1531.036
v  -470.15 0.0 -1530.09
f 443//1 444//1 445//1
v  -492.456 0.0 -1520.091
v  -485.292 0.0 -1506.339
f 445//1 446//1 447//1
v  -481.175 0.0 -1498.444
v  -479.912 0.0 -1495.761
v  -457.606 0.0 -1507.386
f 448//1 449//1 450//1
f 450//1 443//1 445//1
f 445//1 447//1 448//1
f 448//1 450//1 445//1
o SurfaceArea7
v  -888.656 0.0 -2542.386
v  -894.257 0.0 -2538.633
v  -892.4 0.0 -2535.871
f 451//1 452//1 453//1
v  -886.821 0.0 -2539.602
v  -884.766 0.0 -2540.983
f 453//1 454//1 455//1
v  -886.616 0.0 -2543.756
f 455//1 456//1 451//1
f 451//1 453//1 455//1
o SurfaceArea8
v  -961.975 0.0 -2509.587
v  -964.301 0.0 -2509.042
v  -966.247 0.0 -2508.585
f 457//1 458//1 459//1
v  -965.513 0.0 -2505.144
v  -963.707 0.0 -2505.545
f 459//1 460//1 461//1
v  -961.153 0.0 -2506.102
f 461//1 462//1 457//1
f 457//1 459//1 461//1
o SurfaceArea9
v  -723.487 0.0 -1167.056
v  -728.148 0.0 -1163.56
v  -731.553 0.0 -1157.458
f 463//1 464//1 465//1
v  -719.362 0.0 -1118.645
v  -679.117 0.0 -1131.571
f 465//1 466//1 467//1
v  -685.716 0.0 -1143.619
v  -716.007 0.0 -1170.096
f 467//1 468//1 469//1
f 469//1 463//1 465//1
f 465//1 467//1 469//1
o SurfaceArea Bahnhof Ingolstadt Audi
usemtl MAT_1_0
v  -1849.354 0.0 -4683.374
v  -1846.433 0.0 -4684.265
v  -1844.378 0.0 -4686.605
f 470//1 471//1 472//1
v  -1873.899 0.0 -4700.598
v  -1875.587 0.0 -4694.905
v  -1870.809 0.0 -4695.417
f 473//1 474//1 475//1
v  -1852.591 0.0 -4683.853
f 475//1 476//1 470//1
f 470//1 472//1 473//1
f 473//1 475//1 470//1
o SurfaceArea Bahnhof Ingolstadt Audi
v  -1865.326 0.0 -4702.492
v  -1871.807 0.0 -4707.16
f 477//1 478//1 473//1
v  -1844.011 0.0 -4689.345
f 473//1 472//1 479//1
v  -1844.502 0.0 -4692.287
v  -1846.396 0.0 -4694.983
f 479//1 480//1 481//1
v  -1851.688 0.0 -4696.387
v  -1856.76 0.0 -4696.331
f 481//1 482//1 483//1
f 483//1 477//1 473//1
f 479//1 481//1 483//1
f 483//1 473//1 479//1
o SurfaceArea Zentraler Omnibusbahnhof (ZOB)
usemtl MAT_2_0
v  -657.545 0.0 -2108.126
v  -656.026 0.0 -2106.79
v  -639.812 0.0 -2125.142
f 484//1 485//1 486//1
v  -641.324 0.0 -2126.478
f 486//1 487//1 484//1
o SurfaceArea10
v  -113.614 0.0 -1701.493
v  -114.025 0.0 -1703.776
v  -114.767 0.0 -1706.872
f 488//1 489//1 490//1
v  -120.543 0.0 -1724.209
v  -127.487 0.0 -1744.142
f 490//1 491//1 492//1
v  -128.507 0.0 -1747.082
v  -129.322 0.0 -1749.309
f 492//1 493//1 494//1
v  -130.9 0.0 -1754.052
v  -132.294 0.0 -1757.95
f 494//1 495//1 496//1
v  -133.572 0.0 -1761.78
v  -169.867 0.0 -1750.701
f 496//1 497//1 498//1
v  -166.087 0.0 -1736.659
v  -164.649 0.0 -1731.425
f 498//1 499//1 500//1
v  -162.256 0.0 -1721.693
v  -161.177 0.0 -1717.461
f 500//1 501//1 502//1
v  -159.547 0.0 -1712.562
v  -151.738 0.0 -1683.721
v  -136.808 0.0 -1688.253
f 503//1 504//1 505//1
v  -130.166 0.0 -1691.694
v  -127.663 0.0 -1692.997
f 505//1 506//1 507//1
v  -120.778 0.0 -1691.26
v  -114.209 0.0 -1689.879
f 507//1 508//1 509//1
v  -111.508 0.0 -1689.89
v  -112.425 0.0 -1695.324
f 509//1 510//1 511//1
v  -112.91 0.0 -1698.197
f 511//1 512//1 488//1
f 488//1 490//1 492//1
f 494//1 496//1 498//1
f 500//1 502//1 503//1
f 503//1 505//1 507//1
f 507//1 509//1 511//1
f 511//1 488//1 492//1
f 492//1 494//1 498//1
f 500//1 503//1 507//1
f 507//1 511//1 492//1
f 492//1 498//1 500//1
f 500//1 507//1 492//1
g Elevator
o Elevator11
g SurfaceArea
o SurfaceArea Zentraler Omnibusbahnhof (ZOB)
v  -594.062 0.0 -2133.338
v  -595.442 0.0 -2131.868
v  -577.54 0.0 -2115.142
f 513//1 514//1 515//1
v  -576.16 0.0 -2116.623
f 515//1 516//1 513//1
o SurfaceArea Dorfplatz
v  -4425.072 0.0 3801.221
v  -4422.848 0.0 3796.348
v  -4414.062 0.0 3771.986
f 517//1 518//1 519//1
v  -4419.538 0.0 3770.273
v  -4424.353 0.0 3768.37
v  -4436.889 0.0 3768.537
f 520//1 521//1 522//1
v  -4447.943 0.0 3789.662
f 522//1 523//1 517//1
f 517//1 519//1 520//1
f 520//1 522//1 517//1
o SurfaceArea12
usemtl MAT_1_0
v  3045.2 0.0 -115.512
v  3049.45 0.0 -100.227
v  3091.97 0.0 -114.031
f 524//1 525//1 526//1
v  3089.995 0.0 -120.143
v  3088.116 0.0 -127.412
v  3050.911 0.0 -117.171
f 527//1 528//1 529//1
v  3048.709 0.0 -121.98
v  3044.143 0.0 -136.084
v  3042.528 0.0 -135.561
f 530//1 531//1 532//1
v  3035.401 0.0 -157.603
v  3028.274 0.0 -156.067
f 532//1 533//1 534//1
v  3018.608 0.0 -138.934
v  3007.106 0.0 -120.377
v  3014.651 0.0 -122.247
f 535//1 536//1 537//1
f 524//1 526//1 527//1
f 530//1 532//1 534//1
f 534//1 535//1 537//1
f 524//1 527//1 529//1
f 529//1 530//1 534//1
v  3040.121 0.0 -130.462
f 534//1 537//1 538//1
f 538//1 524//1 529//1
f 529//1 534//1 538//1
g Building
o Building Kart Arena
vn  -0.9180131197868298 0.0 -0.39655001185128186
usemtl MAT_4_0
v  2618.634 7.5 563.799
v  2668.942 7.5 447.336
v  2668.942 0.0 447.336
f 539//2 540//2 541//2
v  2618.634 0.0 563.799
f 541//2 542//2 539//2
vn  -0.3964150554771486 0.0 0.9180714045165819
v  2646.321 7.5 575.754
f 543//3 539//3 542//3
v  2646.321 0.0 575.754
f 542//3 544//3 543//3
vn  0.9180159892819456 0.0 0.39654336890520636
v  2696.628 7.5 459.291
f 545//4 543//4 544//4
v  2696.628 0.0 459.291
f 544//4 546//4 545//4
vn  0.39642712358405846 0.0 -0.9180661935213983
f 540//5 545//5 546//5
f 546//5 541//5 540//5
usemtl MAT_5_0
f 540//1 539//1 543//1
f 543//1 545//1 540//1
g SurfaceArea
o SurfaceArea Zentraler Omnibusbahnhof (ZOB)
usemtl MAT_2_0
v  -661.222 0.0 -2120.732
v  -652.693 0.0 -2130.376
v  -654.213 0.0 -2131.712
f 547//1 548//1 549//1
v  -670.427 0.0 -2113.36
v  -668.915 0.0 -2112.024
f 549//1 550//1 551//1
f 551//1 547//1 549//1
o SurfaceArea Zentraler Omnibusbahnhof (ZOB)
v  -683.521 0.0 -2111.367
v  -682.002 0.0 -2110.03
v  -665.788 0.0 -2128.383
f 552//1 553//1 554//1
v  -667.307 0.0 -2129.73
f 554//1 555//1 552//1
o SurfaceArea Zentraler Omnibusbahnhof (ZOB)
v  -698.502 0.0 -2110.955
v  -696.99 0.0 -2109.618
v  -680.776 0.0 -2127.982
f 556//1 557//1 558//1
v  -682.288 0.0 -2129.318
f 558//1 559//1 556//1
o SurfaceArea Zentraler Omnibusbahnhof (ZOB)
v  -700.021 0.0 -2112.291
f 560//1 556//1 559//1
v  -683.8 0.0 -2130.655
f 559//1 561//1 560//1
o SurfaceArea Zentraler Omnibusbahnhof (ZOB)
v  -713.02 0.0 -2111.133
v  -711.508 0.0 -2109.796
v  -695.294 0.0 -2128.149
f 562//1 563//1 564//1
v  -696.806 0.0 -2129.485
f 564//1 565//1 562//1
o SurfaceArea Zentraler Omnibusbahnhof (ZOB)
v  -714.532 0.0 -2112.469
f 566//1 562//1 565//1
v  -698.318 0.0 -2130.822
f 565//1 567//1 566//1
o SurfaceArea Zentraler Omnibusbahnhof (ZOB)
v  -726.584 0.0 -2108.115
v  -710.069 0.0 -2126.2
v  -711.559 0.0 -2127.57
f 568//1 569//1 570//1
v  -728.074 0.0 -2109.485
f 570//1 571//1 568//1
o SurfaceArea Zentraler Omnibusbahnhof (ZOB)
v  -667.395 0.0 -2110.687
v  -651.181 0.0 -2129.04
f 551//1 572//1 573//1
f 573//1 548//1 547//1
f 547//1 551//1 573//1
o SurfaceArea Audi Piazza
v  -1378.448 0.0 -3775.712
v  -1378.294 0.0 -3777.984
v  -1410.083 0.0 -3778.731
f 574//1 575//1 576//1
v  -1413.114 0.0 -3778.33
v  -1415.874 0.0 -3777.305
f 576//1 577//1 578//1
v  -1417.717 0.0 -3775.868
v  -1418.898 0.0 -3774.23
f 578//1 579//1 580//1
v  -1419.346 0.0 -3772.158
v  -1419.302 0.0 -3769.73
f 580//1 581//1 582//1
v  -1418.7 0.0 -3767.535
v  -1417.724 0.0 -3765.252
f 582//1 583//1 584//1
v  -1389.81 0.0 -3714.289
v  -1374.609 0.0 -3686.53
v  -1371.211 0.0 -3686.742
f 585//1 586//1 587//1
v  -1355.878 0.0 -3687.688
v  -1355.871 0.0 -3699.084
f 587//1 588//1 589//1
v  -1335.546 0.0 -3711.126
v  -1338.879 0.0 -3706.915
v  -1334.893 0.0 -3707.483
f 590//1 591//1 592//1
v  -1278.369 0.0 -3715.515
v  -1260.709 0.0 -3717.976
v  -1260.665 0.0 -3720.026
f 593//1 594//1 595//1
v  -1260.525 0.0 -3726.943
v  -1260.342 0.0 -3736.122
f 595//1 596//1 597//1
v  -1179.199 0.0 -3767.458
v  -1179.845 0.0 -3734.496
v  -1171.36 0.0 -3734.229
f 598//1 599//1 600//1
v  -1160.137 0.0 -3734.028
v  -1160.277 0.0 -3751.472
f 600//1 601//1 602//1
v  -1160.438 0.0 -3770.733
v  -1160.468 0.0 -3772.682
f 602//1 603//1 604//1
v  -1160.526 0.0 -3774.553
v  -1160.49 0.0 -3778.686
v  -1164.534 0.0 -3781.27
f 605//1 606//1 607//1
v  -1168.674 0.0 -3784.066
v  -1173.048 0.0 -3780.435
f 607//1 608//1 609//1
v  -1180.08 0.0 -3785.002
v  -1186.979 0.0 -3774.698
f 609//1 610//1 611//1
v  -1199.281 0.0 -3782.863
v  -1216.589 0.0 -3794.538
v  -1245.978 0.0 -3814.355
f 612//1 613//1 614//1
v  -1247.211 0.0 -3815.201
v  -1248.679 0.0 -3813.152
f 614//1 615//1 616//1
v  -1260.701 0.0 -3797.066
v  -1259.666 0.0 -3796.364
f 616//1 617//1 618//1
v  -1284.769 0.0 -3786.64
v  -1284.916 0.0 -3789.759
v  -1313.233 0.0 -3789.848
f 619//1 620//1 621//1
v  -1334.563 0.0 -3789.97
v  -1349.977 0.0 -3789.703
f 621//1 622//1 623//1
v  -1357.471 0.0 -3775.199
v  -1365.28 0.0 -3775.322
v  -1365.449 0.0 -3769.63
f 624//1 625//1 626//1
v  -1378.617 0.0 -3770.02
f 627//1 574//1 576//1
f 576//1 578//1 580//1
f 580//1 582//1 584//1
f 584//1 585//1 587//1
v  -1363.908 0.0 -3699.819
f 587//1 589//1 628//1
v  -1333.44 0.0 -3715.203
f 629//1 590//1 592//1
v  -1303.17 0.0 -3711.994
f 630//1 593//1 595//1
f 598//1 600//1 602//1
f 602//1 604//1 605//1
f 605//1 607//1 609//1
f 612//1 614//1 616//1
v  -1255.116 0.0 -3792.889
f 616//1 618//1 631//1
f 619//1 621//1 623//1
v  -1355.327 0.0 -3775.701
f 632//1 624//1 626//1
f 627//1 576//1 580//1
f 580//1 584//1 587//1
v  -1371.688 0.0 -3703.217
f 587//1 628//1 633//1
v  -1331.847 0.0 -3720.806
f 634//1 629//1 592//1
f 592//1 630//1 595//1
f 598//1 602//1 605//1
f 605//1 609//1 611//1
f 611//1 612//1 616//1
v  -1254.147 0.0 -3791.229
f 616//1 631//1 635//1
v  -1350.645 0.0 -3781.705
f 619//1 623//1 636//1
v  -1353.786 0.0 -3776.358
f 637//1 632//1 626//1
v  -1377.641 0.0 -3708.519
f 587//1 633//1 638//1
f 634//1 592//1 595//1
v  -1196.668 0.0 -3767.758
f 639//1 598//1 605//1
f 611//1 616//1 635//1
v  -1257.78 0.0 -3786.194
f 640//1 619//1 636//1
f 580//1 587//1 638//1
v  -1331.649 0.0 -3727.89
f 641//1 634//1 595//1
v  -1221.756 0.0 -3768.182
f 642//1 639//1 605//1
v  -1253.985 0.0 -3789.324
f 611//1 635//1 643//1
v  -1351.114 0.0 -3779.221
f 640//1 636//1 644//1
v  -1381.479 0.0 -3714.846
f 580//1 638//1 645//1
v  -1332.508 0.0 -3732.246
f 646//1 641//1 595//1
v  -1247.108 0.0 -3768.605
f 647//1 642//1 605//1
v  -1254.411 0.0 -3787.497
f 611//1 643//1 648//1
v  -1352.325 0.0 -3777.695
f 640//1 644//1 649//1
v  -1383.476 0.0 -3722.789
f 580//1 645//1 650//1
v  -1334.181 0.0 -3736.579
f 651//1 646//1 595//1
v  -1258.925 0.0 -3768.761
f 652//1 647//1 605//1
v  -1255.806 0.0 -3786.461
f 611//1 648//1 653//1
f 640//1 649//1 637//1
v  -1382.698 0.0 -3731.767
f 580//1 650//1 654//1
v  -1338.203 0.0 -3742.516
f 655//1 651//1 595//1
f 652//1 605//1 611//1
f 611//1 653//1 640//1
f 640//1 637//1 626//1
f 627//1 580//1 654//1
v  -1343.554 0.0 -3747.039
f 656//1 655//1 595//1
f 652//1 611//1 640//1
v  -1371.842 0.0 -3769.819
f 657//1 627//1 654//1
v  -1348.942 0.0 -3749.646
f 658//1 656//1 595//1
f 652//1 640//1 626//1
f 626//1 657//1 654//1
f 658//1 595//1 597//1
f 597//1 652//1 626//1
v  -1378.668 0.0 -3740.288
f 626//1 654//1 659//1
v  -1356.399 0.0 -3751.083
f 660//1 658//1 597//1
v  -1372.914 0.0 -3746.081
f 626//1 659//1 661//1
f 660//1 597//1 626//1
v  -1365.045 0.0 -3750.002
f 626//1 661//1 662//1
f 662//1 660//1 626//1
o SurfaceArea Reiterkasernstraﬂe
v  -217.819 0.0 -1672.965
f 663//1 245//1 244//1
v  -215.514 0.0 -1666.996
f 244//1 243//1 664//1
v  -216.38 0.0 -1669.234
f 665//1 663//1 244//1
f 244//1 664//1 665//1
o SurfaceArea Zentraler Omnibusbahnhof (ZOB)
v  -729.571 0.0 -2110.843
f 666//1 571//1 570//1
v  -713.049 0.0 -2128.928
f 570//1 667//1 666//1
o SurfaceArea Zentraler Omnibusbahnhof (ZOB)
v  -579.118 0.0 -2134.04
v  -580.498 0.0 -2132.57
v  -562.603 0.0 -2115.843
f 668//1 669//1 670//1
v  -561.223 0.0 -2117.325
f 670//1 671//1 668//1
o SurfaceArea Zentraler Omnibusbahnhof (ZOB)
v  -563.147 0.0 -2136.278
v  -564.526 0.0 -2134.808
v  -546.632 0.0 -2118.082
f 672//1 673//1 674//1
v  -545.252 0.0 -2119.563
f 674//1 675//1 672//1
o SurfaceArea Zentraler Omnibusbahnhof (ZOB)
v  -577.738 0.0 -2135.521
f 676//1 668//1 671//1
v  -559.844 0.0 -2118.794
f 671//1 677//1 676//1
o SurfaceArea Zentraler Omnibusbahnhof (ZOB)
v  -547.982 0.0 -2137.013
v  -549.362 0.0 -2135.543
v  -531.46 0.0 -2118.817
f 678//1 679//1 680//1
v  -530.088 0.0 -2120.287
f 680//1 681//1 678//1
o SurfaceArea13
usemtl MAT_1_0
v  -1546.965 0.0 -1898.325
v  -1547.06 0.0 -1906.51
v  -1555.112 0.0 -1906.577
f 682//1 683//1 684//1
v  -1568.544 0.0 -1890.519
v  -1577.807 0.0 -1887.089
v  -1576.75 0.0 -1881.822
f 685//1 686//1 687//1
v  -1575.216 0.0 -1875.486
v  -1559.905 0.0 -1879.194
f 687//1 688//1 689//1
v  -1551.853 0.0 -1877.301
v  -1550.84 0.0 -1875.285
v  -1542.987 0.0 -1877.379
f 690//1 691//1 692//1
v  -1542.245 0.0 -1881.276
v  -1541.599 0.0 -1877.635
v  -1535.177 0.0 -1878.37
f 693//1 694//1 695//1
v  -1529.533 0.0 -1879.027
v  -1531.845 0.0 -1898.793
f 695//1 696//1 697//1
v  -1554.811 0.0 -1902.133
f 682//1 684//1 698//1
v  -1563.355 0.0 -1893.036
f 699//1 685//1 687//1
v  -1556.389 0.0 -1879.55
f 687//1 689//1 700//1
v  -1553.505 0.0 -1878.804
f 701//1 690//1 692//1
f 693//1 695//1 697//1
v  -1555.34 0.0 -1901.231
f 682//1 698//1 702//1
v  -1559.164 0.0 -1895.942
f 703//1 699//1 687//1
f 700//1 701//1 692//1
v  -1543.596 0.0 -1881.009
f 704//1 693//1 697//1
v  -1556.683 0.0 -1898.96
f 682//1 702//1 705//1
f 703//1 687//1 700//1
f 700//1 692//1 704//1
v  -1540.653 0.0 -1898.403
f 704//1 697//1 706//1
f 682//1 705//1 703//1
f 703//1 700//1 704//1
f 704//1 706//1 682//1
f 682//1 703//1 704//1
o SurfaceArea14
v  -1529.085 0.0 -1724.722
v  -1528.461 0.0 -1721.08
v  -1527.72 0.0 -1717.461
f 707//1 708//1 709//1
v  -1520.035 0.0 -1714.856
v  -1518.559 0.0 -1701.66
v  -1511.667 0.0 -1702.874
f 710//1 711//1 712//1
v  -1510.126 0.0 -1703.097
v  -1509.891 0.0 -1701.839
v  -1503.417 0.0 -1703.097
f 713//1 714//1 715//1
v  -1499.865 0.0 -1703.754
v  -1500.283 0.0 -1706.137
f 715//1 716//1 717//1
v  -1495.556 0.0 -1714.455
v  -1492.297 0.0 -1715.034
v  -1493.024 0.0 -1719.9
f 718//1 719//1 720//1
v  -1496.716 0.0 -1725.345
v  -1493.721 0.0 -1725.69
v  -1495.197 0.0 -1735.902
f 721//1 722//1 723//1
v  -1504.775 0.0 -1739.209
v  -1505.722 0.0 -1741.592
v  -1514.126 0.0 -1739.888
f 724//1 725//1 726//1
v  -1516.064 0.0 -1739.498
v  -1521.994 0.0 -1738.496
v  -1525.907 0.0 -1737.828
f 727//1 728//1 729//1
v  -1526.531 0.0 -1725.278
f 730//1 707//1 709//1
v  -1520.402 0.0 -1716.381
f 731//1 710//1 712//1
f 713//1 715//1 717//1
v  -1497.009 0.0 -1713.687
f 732//1 718//1 720//1
v  -1497.655 0.0 -1725.223
f 733//1 721//1 723//1
v  -1503.77 0.0 -1737.906
f 734//1 724//1 726//1
v  -1524.116 0.0 -1729.499
f 727//1 729//1 735//1
v  -1525.29 0.0 -1725.813
f 736//1 730//1 709//1
v  -1521.128 0.0 -1717.528
f 737//1 731//1 712//1
f 712//1 713//1 717//1
v  -1498.191 0.0 -1712.595
f 738//1 732//1 720//1
v  -1499.05 0.0 -1724.688
f 739//1 733//1 723//1
v  -1502.213 0.0 -1736.959
f 740//1 734//1 726//1
f 726//1 727//1 735//1
v  -1524.395 0.0 -1726.804
f 741//1 736//1 709//1
f 737//1 712//1 717//1
v  -1499.336 0.0 -1711.059
f 742//1 738//1 720//1
v  -1500.041 0.0 -1723.564
f 743//1 739//1 723//1
v  -1500.026 0.0 -1736.314
f 744//1 740//1 726//1
v  -1524.086 0.0 -1727.918
f 726//1 735//1 745//1
v  -1524.086 0.0 -1718.263
f 741//1 709//1 746//1
v  -1500.312 0.0 -1707.852
f 737//1 717//1 747//1
v  -1495.732 0.0 -1719.455
f 742//1 720//1 748//1
f 743//1 723//1 744//1
f 744//1 726//1 745//1
f 745//1 741//1 746//1
v  -1522.406 0.0 -1718.196
f 749//1 737//1 747//1
v  -1497.677 0.0 -1719.288
f 742//1 748//1 750//1
v  -1500.445 0.0 -1722.383
f 751//1 743//1 744//1
f 744//1 745//1 746//1
v  -1499.938 0.0 -1709.489
f 749//1 747//1 752//1
f 752//1 742//1 750//1
f 751//1 744//1 746//1
f 749//1 752//1 750//1
v  -1500.078 0.0 -1720.925
f 753//1 751//1 746//1
f 746//1 749//1 750//1
v  -1499.079 0.0 -1719.811
f 754//1 753//1 746//1
f 746//1 750//1 754//1
o SurfaceArea15
v  -1483.306 0.0 -1582.825
v  -1469.962 0.0 -1589.228
v  -1466.6 0.0 -1590.843
f 755//1 756//1 757//1
v  -1479.496 0.0 -1618.903
v  -1485.552 0.0 -1616.609
f 757//1 758//1 759//1
v  -1489.486 0.0 -1615.106
v  -1491.049 0.0 -1619.716
v  -1500.782 0.0 -1616.286
f 760//1 761//1 762//1
v  -1497.376 0.0 -1601.354
v  -1498.243 0.0 -1599.439
v  -1495.725 0.0 -1594.862
f 763//1 764//1 765//1
v  -1493.053 0.0 -1590.308
v  -1490.807 0.0 -1590.865
f 765//1 766//1 767//1
v  -1486.719 0.0 -1589.373
f 768//1 755//1 757//1
f 757//1 759//1 760//1
v  -1497.611 0.0 -1607.634
f 760//1 762//1 769//1
v  -1496.958 0.0 -1603.214
f 770//1 763//1 765//1
v  -1488.539 0.0 -1590.497
f 765//1 767//1 771//1
f 771//1 768//1 757//1
f 757//1 760//1 769//1
v  -1497.083 0.0 -1605.218
f 772//1 770//1 765//1
f 765//1 771//1 757//1
f 757//1 769//1 772//1
f 772//1 765//1 757//1
o SurfaceArea Zentraler Omnibusbahnhof (ZOB)
usemtl MAT_2_0
v  -592.682 0.0 -2134.819
f 773//1 513//1 516//1
v  -574.78 0.0 -2118.093
f 516//1 774//1 773//1
o SurfaceArea Zentraler Omnibusbahnhof (ZOB)
v  -550.742 0.0 -2134.062
v  -532.84 0.0 -2117.336
f 679//1 775//1 776//1
f 776//1 680//1 679//1
o SurfaceArea16
usemtl MAT_1_0
v  -912.445 0.0 -2224.021
v  -916.13 0.0 -2222.585
v  -912.944 0.0 -2214.433
f 777//1 778//1 779//1
v  -898.727 0.0 -2220.625
v  -905.421 0.0 -2237.24
f 779//1 780//1 781//1
v  -892.033 0.0 -2242.474
v  -895.659 0.0 -2251.751
f 781//1 782//1 783//1
v  -896.518 0.0 -2253.956
v  -912.276 0.0 -2247.797
f 783//1 784//1 785//1
v  -920.482 0.0 -2244.579
v  -917.275 0.0 -2236.383
f 785//1 786//1 787//1
f 777//1 779//1 781//1
f 781//1 783//1 785//1
f 785//1 787//1 777//1
f 777//1 781//1 785//1
o SurfaceArea Zentraler Omnibusbahnhof (ZOB)
usemtl MAT_2_0
v  -744.626 0.0 -2113.56
v  -743.128 0.0 -2112.202
v  -726.613 0.0 -2130.287
f 788//1 789//1 790//1
v  -728.103 0.0 -2131.646
f 790//1 791//1 788//1
o SurfaceArea Zentraler Omnibusbahnhof (ZOB)
v  -685.033 0.0 -2112.703
f 792//1 552//1 555//1
v  -668.819 0.0 -2131.067
f 555//1 793//1 792//1
o SurfaceArea Audi - Parkplatz
usemtl MAT_1_0
v  -1725.721 0.0 -3964.429
v  -1766.736 0.0 -3996.021
v  -1768.711 0.0 -3993.47
f 794//1 795//1 796//1
v  -1727.681 0.0 -3961.867
f 796//1 797//1 794//1
o SurfaceArea Audi - Parkplatz
v  -1755.836 0.0 -4014.959
v  -1758.457 0.0 -4011.517
v  -1705.866 0.0 -3971.491
f 798//1 799//1 800//1
v  -1703.444 0.0 -3974.577
v  -1704.575 0.0 -3975.435
f 800//1 801//1 802//1
v  -1753.642 0.0 -4013.277
f 802//1 803//1 798//1
f 798//1 800//1 802//1
o SurfaceArea Audi - Parkplatz
v  -1773.841 0.0 -3991.432
v  -1773.408 0.0 -3990.875
v  -1731.358 0.0 -3957.333
f 804//1 805//1 806//1
v  -1730.822 0.0 -3957.021
v  -1730.205 0.0 -3956.909
f 806//1 807//1 808//1
v  -1729.589 0.0 -3957.01
v  -1729.053 0.0 -3957.322
f 808//1 809//1 810//1
v  -1728.649 0.0 -3957.801
v  -1728.429 0.0 -3958.38
f 810//1 811//1 812//1
v  -1728.429 0.0 -3959.004
v  -1728.642 0.0 -3959.594
f 812//1 813//1 814//1
v  -1729.038 0.0 -3960.073
v  -1767.756 0.0 -3990.797
f 814//1 815//1 816//1
v  -1769.232 0.0 -3991.577
v  -1770.524 0.0 -3992.033
f 816//1 817//1 818//1
v  -1771.463 0.0 -3992.301
v  -1772.439 0.0 -3992.423
f 818//1 819//1 820//1
v  -1773.32 0.0 -3992.423
v  -1773.863 0.0 -3992.033
f 820//1 821//1 822//1
f 822//1 804//1 806//1
f 806//1 808//1 810//1
f 810//1 812//1 814//1
f 814//1 816//1 818//1
f 818//1 820//1 822//1
f 822//1 806//1 810//1
f 810//1 814//1 818//1
f 818//1 822//1 810//1
o SurfaceArea Audi - Parkplatz
v  -1766.296 0.0 -4002.416
v  -1766.208 0.0 -4001.992
v  -1715.386 0.0 -3963.482
f 823//1 824//1 825//1
v  -1714.843 0.0 -3963.17
v  -1714.234 0.0 -3963.059
f 825//1 826//1 827//1
v  -1713.617 0.0 -3963.17
v  -1713.074 0.0 -3963.471
f 827//1 828//1 829//1
v  -1712.67 0.0 -3963.95
v  -1712.458 0.0 -3964.54
f 829//1 830//1 831//1
v  -1712.458 0.0 -3965.164
v  -1712.663 0.0 -3965.743
f 831//1 832//1 833//1
v  -1713.067 0.0 -3966.222
v  -1759.139 0.0 -4000.934
f 833//1 834//1 835//1
v  -1761.356 0.0 -4002.115
v  -1763.374 0.0 -4002.75
f 835//1 836//1 837//1
v  -1765.393 0.0 -4003.051
v  -1765.951 0.0 -4002.973
f 837//1 838//1 839//1
v  -1766.252 0.0 -4002.717
f 839//1 840//1 823//1
f 823//1 825//1 827//1
f 827//1 829//1 831//1
f 831//1 833//1 835//1
f 835//1 837//1 839//1
f 839//1 823//1 827//1
f 827//1 831//1 835//1
f 835//1 839//1 827//1
o SurfaceArea Audi - Parkplatz
v  -1761.679 0.0 -4006.682
v  -1761.591 0.0 -4006.248
v  -1710.902 0.0 -3967.748
f 841//1 842//1 843//1
v  -1710.358 0.0 -3967.425
v  -1709.749 0.0 -3967.314
f 843//1 844//1 845//1
v  -1709.133 0.0 -3967.425
v  -1708.589 0.0 -3967.737
f 845//1 846//1 847//1
v  -1708.186 0.0 -3968.205
v  -1707.973 0.0 -3968.796
f 847//1 848//1 849//1
v  -1707.973 0.0 -3969.419
v  -1708.178 0.0 -3970.01
f 849//1 850//1 851//1
v  -1708.582 0.0 -3970.489
v  -1754.53 0.0 -4005.19
f 851//1 852//1 853//1
v  -1756.747 0.0 -4006.37
v  -1758.765 0.0 -4007.017
f 853//1 854//1 855//1
v  -1760.783 0.0 -4007.306
v  -1761.334 0.0 -4007.239
f 855//1 856//1 857//1
v  -1761.635 0.0 -4006.983
f 857//1 858//1 841//1
f 841//1 843//1 845//1
f 845//1 847//1 849//1
f 849//1 851//1 853//1
f 853//1 855//1 857//1
f 857//1 841//1 845//1
f 845//1 849//1 853//1
f 853//1 857//1 845//1
o SurfaceArea Zentraler Omnibusbahnhof (ZOB)
usemtl MAT_2_0
v  -565.906 0.0 -2133.327
v  -548.012 0.0 -2116.612
f 673//1 859//1 860//1
f 860//1 674//1 673//1
o SurfaceArea17
v  4486.456 0.0 3580.497
v  4490.588 0.0 3549.481
v  4484.151 0.0 3548.625
f 861//1 862//1 863//1
v  4480.011 0.0 3579.641
f 863//1 864//1 861//1
o SurfaceArea Rathausplatz
usemtl MAT_1_0
v  -501.0 0.0 -1447.168
v  -442.493 0.0 -1478.446
v  -443.646 0.0 -1480.606
f 865//1 866//1 867//1
v  -461.694 0.0 -1470.952
v  -462.979 0.0 -1472.901
v  -509.206 0.0 -1449.406
f 868//1 869//1 870//1
v  -507.965 0.0 -1447.068
v  -506.453 0.0 -1444.251
f 870//1 871//1 872//1
f 872//1 865//1 867//1
f 868//1 870//1 872//1
f 872//1 867//1 868//1
o SurfaceArea Rathausplatz
v  -461.548 0.0 -1453.693
v  -442.824 0.0 -1463.603
v  -443.822 0.0 -1465.496
f 873//1 874//1 875//1
v  -462.553 0.0 -1455.597
f 875//1 876//1 873//1
o SurfaceArea Audi - Parkplatz
v  -1777.768 0.0 -3988.68
v  -1777.518 0.0 -3988.335
v  -1739.116 0.0 -3956.909
f 877//1 878//1 879//1
v  -1738.573 0.0 -3956.586
v  -1737.964 0.0 -3956.475
f 879//1 880//1 881//1
v  -1737.347 0.0 -3956.586
v  -1736.804 0.0 -3956.898
f 881//1 882//1 883//1
v  -1736.4 0.0 -3957.366
v  -1736.187 0.0 -3957.957
f 883//1 884//1 885//1
v  -1736.187 0.0 -3958.58
v  -1736.393 0.0 -3959.171
f 885//1 886//1 887//1
v  -1736.797 0.0 -3959.65
v  -1771.287 0.0 -3987.611
f 887//1 888//1 889//1
v  -1772.659 0.0 -3988.547
v  -1774.238 0.0 -3989.338
f 889//1 890//1 891//1
v  -1775.683 0.0 -3989.727
v  -1776.887 0.0 -3989.783
f 891//1 892//1 893//1
v  -1777.438 0.0 -3989.605
v  -1777.768 0.0 -3989.17
f 893//1 894//1 895//1
f 895//1 877//1 879//1
f 879//1 881//1 883//1
f 883//1 885//1 887//1
f 887//1 889//1 891//1
f 891//1 893//1 895//1
f 895//1 879//1 883//1
f 883//1 887//1 891//1
f 891//1 895//1 883//1
g Elevator
o Elevator18
o Elevator19
g SurfaceArea
o SurfaceArea20
v  -1143.909 0.0 -2855.523
v  -1141.663 0.0 -2855.311
v  -1141.347 0.0 -2859.922
f 896//1 897//1 898//1
v  -1143.579 0.0 -2860.1
v  -1145.67 0.0 -2860.256
f 898//1 899//1 900//1
v  -1146.126 0.0 -2855.723
f 900//1 901//1 896//1
f 896//1 898//1 900//1
o SurfaceArea21
v  -1142.72 0.0 -2870.28
v  -1140.569 0.0 -2870.113
v  -1139.71 0.0 -2874.29
f 902//1 903//1 904//1
v  -1142.199 0.0 -2874.602
v  -1143.85 0.0 -2874.813
v  -1144.892 0.0 -2870.447
f 905//1 906//1 907//1
f 907//1 902//1 904//1
f 904//1 905//1 907//1
o SurfaceArea22
v  -1105.741 0.0 -2868.498
v  -1103.914 0.0 -2868.487
v  -1103.576 0.0 -2871.929
f 908//1 909//1 910//1
v  -1105.44 0.0 -2871.995
v  -1108.083 0.0 -2872.018
f 910//1 911//1 912//1
v  -1108.12 0.0 -2868.52
f 912//1 913//1 908//1
f 908//1 910//1 912//1
o SurfaceArea23
v  -1103.906 0.0 -2857.594
v  -1105.807 0.0 -2857.672
v  -1108.208 0.0 -2857.695
f 914//1 915//1 916//1
v  -1108.42 0.0 -2854.309
v  -1105.837 0.0 -2853.83
f 916//1 917//1 918//1
v  -1103.503 0.0 -2853.429
f 918//1 919//1 914//1
f 914//1 916//1 918//1
o SurfaceArea Carraraplatz
usemtl MAT_2_0
v  -379.51 0.0 -1609.082
v  -375.363 0.0 -1597.056
v  -373.513 0.0 -1592.502
f 920//1 921//1 922//1
v  -370.724 0.0 -1593.493
v  -335.463 0.0 -1606.098
f 922//1 923//1 924//1
v  -336.571 0.0 -1609.193
v  -346.392 0.0 -1638.724
v  -350.891 0.0 -1639.036
f 925//1 926//1 927//1
v  -356.668 0.0 -1635.406
v  -357.945 0.0 -1631.876
f 927//1 928//1 929//1
v  -354.884 0.0 -1621.709
v  -377.939 0.0 -1614.794
v  -382.123 0.0 -1613.525
f 930//1 931//1 932//1
v  -381.616 0.0 -1611.832
v  -381.234 0.0 -1610.507
v  -380.677 0.0 -1608.681
f 933//1 934//1 935//1
f 920//1 922//1 924//1
f 924//1 925//1 927//1
f 927//1 929//1 930//1
f 930//1 932//1 933//1
f 933//1 935//1 920//1
f 924//1 927//1 930//1
f 930//1 933//1 920//1
f 920//1 924//1 930//1
o SurfaceArea Franziskanerplatz
v  -614.775 0.0 -1803.093
v  -619.179 0.0 -1818.861
v  -624.949 0.0 -1837.847
f 936//1 937//1 938//1
v  -638.395 0.0 -1833.805
v  -641.603 0.0 -1836.878
v  -656.745 0.0 -1829.585
f 939//1 940//1 941//1
v  -658.609 0.0 -1828.66
v  -664.4 0.0 -1825.798
v  -652.488 0.0 -1800.187
f 942//1 943//1 944//1
v  -646.741 0.0 -1797.715
f 944//1 945//1 936//1
f 936//1 938//1 939//1
f 939//1 941//1 942//1
f 942//1 944//1 936//1
f 936//1 939//1 942//1
