# This file was created by OSM2World 0.5.0-SNAPSHOT - https://osm2world.org

# Projection information:
# Coordinate origin (0,0,0): lat 48.755672849999996, lon 11.464678, ele 0
# North direction: (0.0, 0.0, -1.0)
# 1 coordinate unit corresponds to roughly 1 m in reality

mtllib Ingolstadt_Tile_9_7.obj.mtl

g Building
o Building0
vn  -0.9997514330401104 0.0 -0.02229511458247798
usemtl MAT_0_0
v  -342.708 7.5 449.64
v  -342.569 7.5 443.407
v  -342.569 0.0 443.407
f 1//1 2//1 3//1
v  -342.708 0.0 449.64
f 3//1 4//1 1//1
vn  -0.021983568020469454 0.0 0.9997583321668739
v  -334.613 7.5 449.818
f 5//2 1//2 4//2
v  -334.613 0.0 449.818
f 4//2 6//2 5//2
vn  0.9997758299647285 0.0 0.021172855696349923
v  -334.481 7.5 443.585
f 7//3 5//3 6//3
v  -334.481 0.0 443.585
f 6//3 8//3 7//3
vn  0.022002585145902784 0.0 -0.9997579138205896
f 2//4 7//4 8//4
f 8//4 3//4 2//4
vn  0.0 1.0 0.0
usemtl MAT_1_0
f 2//5 1//5 5//5
f 5//5 7//5 2//5
o Building Rettungswacht
vn  -0.5252499036151734 0.0 0.8509480235315499
usemtl MAT_0_0
v  240.689 7.5 363.574
v  237.93 7.5 361.871
v  237.93 0.0 361.871
f 9//6 10//6 11//6
v  240.689 0.0 363.574
f 11//6 12//6 9//6
vn  0.7519382558319229 0.0 0.6592335393594941
v  243.441 7.5 360.435
f 13//7 9//7 12//7
v  243.441 0.0 360.435
f 12//7 14//7 13//7
vn  0.6016227137703707 0.0 -0.7987803892657697
v  240.293 7.5 358.064
f 15//8 13//8 14//8
v  240.293 0.0 358.064
f 14//8 16//8 15//8
vn  -0.8496367179440021 0.0 -0.5273684172581292
f 10//9 15//9 16//9
f 16//9 11//9 10//9
usemtl MAT_1_0
f 13//5 15//5 10//5
f 10//5 9//5 13//5
o Building1
vn  -0.8613289038169656 0.0 -0.5080477531191971
usemtl MAT_0_0
v  230.246 7.5 366.09
v  232.557 7.5 362.172
v  232.557 0.0 362.172
f 17//10 18//10 19//10
v  230.246 0.0 366.09
f 19//10 20//10 17//10
vn  -0.5085281492320416 0.0 0.8610453654939642
v  236.88 7.5 370.008
f 21//11 17//11 20//11
v  236.88 0.0 370.008
f 20//11 22//11 21//11
vn  0.8605589998033542 0.0 0.509350770940273
v  239.199 7.5 366.09
f 23//12 21//12 22//12
v  239.199 0.0 366.09
f 22//12 24//12 23//12
vn  0.5080738300601537 0.0 -0.861313522016232
f 18//13 23//13 24//13
f 24//13 19//13 18//13
usemtl MAT_1_0
f 18//5 17//5 21//5
f 21//5 23//5 18//5
o Building2
vn  -0.9995366076605621 0.0 -0.03043961146952417
usemtl MAT_0_0
v  -335.354 7.5 415.757
v  -334.613 7.5 391.425
v  -334.613 0.0 391.425
f 25//14 26//14 27//14
v  -335.354 0.0 415.757
f 27//14 28//14 25//14
vn  -0.030291413621974937 0.0 0.9995411098403019
v  -322.122 7.5 416.158
f 29//15 25//15 28//15
v  -322.122 0.0 416.158
f 28//15 30//15 29//15
vn  0.9995366457208753 0.0 0.030438361668483543
v  -321.381 7.5 391.825
f 31//16 29//16 30//16
v  -321.381 0.0 391.825
f 30//16 32//16 31//16
vn  0.030215942991235346 0.0 -0.9995433941501242
f 26//17 31//17 32//17
f 32//17 27//17 26//17
usemtl MAT_1_0
f 25//5 29//5 31//5
f 31//5 26//5 25//5
o Building3
vn  0.16136578748535843 0.0 -0.9868946664306328
usemtl MAT_0_0
v  -108.243 2.5 81.958
v  -103.546 2.5 82.726
v  -103.546 2.2 82.726
f 33//18 34//18 35//18
v  -108.243 2.2 81.958
f 35//18 36//18 33//18
vn  -0.9868975189857818 0.0 -0.16134834061653192
v  -109.71 2.5 90.931
f 37//19 33//19 36//19
v  -109.71 2.2 90.931
f 36//19 38//19 37//19
vn  -0.1588826920115468 0.0 0.9872974679290755
v  -105.006 2.5 91.688
f 39//20 37//20 38//20
v  -105.006 2.2 91.688
f 38//20 40//20 39//20
vn  0.9869885793868368 0.0 0.16079037334353663
f 34//21 39//21 40//21
f 40//21 35//21 34//21
usemtl MAT_1_0
f 39//5 34//5 33//5
f 33//5 37//5 39//5
vn  0.0 -1.0 0.0
usemtl MAT_0_0
v  -108.243 2.1900000000000004 81.958
v  -103.546 2.1900000000000004 82.726
v  -105.006 2.1900000000000004 91.688
f 41//22 42//22 43//22
v  -109.71 2.1900000000000004 90.931
f 43//22 44//22 41//22
o Building4
vn  -0.982448080148814 0.0 -0.1865362426230076
v  -110.774 2.5 105.78
v  -109.732 2.5 100.292
v  -109.732 2.2 100.292
f 45//23 46//23 47//23
v  -110.774 2.2 105.78
f 47//23 48//23 45//23
vn  -0.18502814911128396 0.0 0.9827332211930421
v  -103.795 2.5 107.094
f 49//24 45//24 48//24
v  -103.795 2.2 107.094
f 48//24 50//24 49//24
vn  0.9823793612275984 0.0 0.18689780799692549
v  -102.753 2.5 101.617
f 51//25 49//25 50//25
v  -102.753 2.2 101.617
f 50//25 52//25 51//25
vn  0.18652341775517298 0.0 -0.9824505151044145
f 46//26 51//26 52//26
f 52//26 47//26 46//26
usemtl MAT_1_0
f 51//5 46//5 45//5
f 45//5 49//5 51//5
usemtl MAT_0_0
v  -110.774 2.1900000000000004 105.78
v  -109.732 2.1900000000000004 100.292
v  -102.753 2.1900000000000004 101.617
f 53//22 54//22 55//22
v  -103.795 2.1900000000000004 107.094
f 55//22 56//22 53//22
o Building5
vn  0.7828119252356481 0.0 0.6222583785766633
v  -364.909 7.5 283.796
v  -366.281 7.5 285.522
v  -366.281 0.0 285.522
f 57//27 58//27 59//27
v  -364.909 0.0 283.796
f 59//27 60//27 57//27
vn  0.621284767301575 0.0 -0.7835848632528757
v  -367.323 7.5 281.882
f 61//28 57//28 60//28
v  -367.323 0.0 281.882
f 60//28 62//28 61//28
vn  -0.7826362180735444 0.0 -0.6224793572155941
v  -368.695 7.5 283.607
f 63//29 61//29 62//29
v  -368.695 0.0 283.607
f 62//29 64//29 63//29
vn  -0.6214840132385187 0.0 0.7834268448865821
f 58//30 63//30 64//30
f 64//30 59//30 58//30
usemtl MAT_1_0
f 58//5 57//5 61//5
f 61//5 63//5 58//5
o Building6
vn  -0.9110295493267832 0.0 -0.4123410727218894
usemtl MAT_0_0
v  -139.734 7.5 -275.361
v  -133.335 7.5 -289.499
v  -133.335 0.0 -289.499
f 65//31 66//31 67//31
v  -139.734 0.0 -275.361
f 67//31 68//31 65//31
vn  -0.4125225161719474 0.0 0.9109474044373612
v  -131.155 7.5 -271.476
f 69//32 65//32 68//32
v  -131.155 0.0 -271.476
f 68//32 70//32 69//32
vn  0.9107149783392524 0.0 0.4130353837488202
v  -124.748 7.5 -285.603
f 71//33 69//33 70//33
v  -124.748 0.0 -285.603
f 70//33 72//33 71//33
vn  0.4131716281559561 0.0 -0.9106531753016384
f 66//34 71//34 72//34
f 72//34 67//34 66//34
usemtl MAT_1_0
f 66//5 65//5 69//5
f 69//5 71//5 66//5
o Building7
vn  -0.930051989955988 0.0 -0.3674279466492807
usemtl MAT_0_0
v  -30.295 7.5 -216.983
v  -28.791 7.5 -220.79
v  -28.791 0.0 -220.79
f 73//35 74//35 75//35
v  -30.295 0.0 -216.983
f 75//35 76//35 73//35
vn  -0.9301455005331969 0.0 -0.3671911598035124
v  -27.433 7.5 -224.23
f 75//36 74//36 77//36
v  -27.433 0.0 -224.23
f 77//36 78//36 75//36
vn  -0.3670021262178979 0.0 0.9302201026378338
v  -18.443 7.5 -212.307
f 79//37 73//37 76//37
v  -18.443 0.0 -212.307
f 76//37 80//37 79//37
vn  0.9302741085535796 0.0 0.36686521088111196
v  -16.946 0.0 -216.103
v  -16.946 7.5 -216.103
f 81//38 82//38 79//38
f 79//38 80//38 81//38
vn  0.9299007161343976 0.0 0.3678106280856149
v  -15.581 0.0 -219.554
f 82//39 81//39 83//39
v  -15.581 7.5 -219.554
f 83//39 84//39 82//39
vn  0.36700212621789596 0.0 -0.9302201026378345
f 77//40 84//40 83//40
f 83//40 78//40 77//40
usemtl MAT_1_0
f 73//5 79//5 82//5
f 82//5 84//5 77//5
f 74//5 73//5 82//5
f 82//5 77//5 74//5
o Building8
vn  -0.9120355682633764 0.0 -0.410111109606287
usemtl MAT_0_0
v  -198.123 7.5 -191.99
v  -186.219 7.5 -218.463
v  -186.219 0.0 -218.463
f 85//41 86//41 87//41
v  -198.123 0.0 -191.99
f 87//41 88//41 85//41
vn  -0.4102489693895779 0.0 0.9119735649210393
v  -12.3 7.5 -108.398
f 89//42 85//42 88//42
v  -12.3 0.0 -108.398
f 88//42 90//42 89//42
vn  0.9120463656516183 0.0 0.41008709672662746
v  -0.382 7.5 -134.904
f 91//43 89//43 90//43
v  -0.382 0.0 -134.904
f 90//43 92//43 91//43
vn  0.41008855805756383 0.0 -0.9120457085860708
f 86//44 91//44 92//44
f 92//44 87//44 86//44
usemtl MAT_1_0
f 91//5 86//5 85//5
f 85//5 89//5 91//5
o Building9
vn  -0.3415932013770577 0.0 0.9398479051277249
usemtl MAT_0_0
v  -154.471 7.5 -267.746
v  -200.295 7.5 -284.401
v  -200.295 0.0 -284.401
f 93//45 94//45 95//45
v  -154.471 0.0 -267.746
f 95//45 96//45 93//45
vn  0.9399356878216426 0.0 0.34135158233008905
v  -145.649 7.5 -292.038
f 97//46 93//46 96//46
v  -145.649 0.0 -292.038
f 96//46 98//46 97//46
vn  0.34136919181458053 0.0 -0.9399292924895255
v  -191.474 7.5 -308.681
f 99//47 97//47 98//47
v  -191.474 0.0 -308.681
f 98//47 100//47 99//47
vn  -0.9398939738894767 0.0 -0.3414664227215437
f 94//48 99//48 100//48
f 100//48 95//48 94//48
usemtl MAT_1_0
f 93//5 97//5 99//5
f 99//5 94//5 93//5
o Building10
vn  -0.18639153257274685 0.0 0.9824755450316219
usemtl MAT_0_0
v  -383.197 7.5 -363.843
v  -399.864 7.5 -367.005
v  -399.864 0.0 -367.005
f 101//49 102//49 103//49
v  -383.197 0.0 -363.843
f 103//49 104//49 101//49
vn  0.9825514479566531 0.0 0.18599100010023162
v  -367.514 7.5 -446.693
f 105//50 101//50 104//50
v  -367.514 0.0 -446.693
f 104//50 106//50 105//50
vn  0.1866293143853656 0.0 -0.9824304041569807
v  -384.159 7.5 -449.855
f 107//51 105//51 106//51
v  -384.159 0.0 -449.855
f 106//51 108//51 107//51
vn  -0.9825037383791404 0.0 -0.1862428631411512
f 102//52 107//52 108//52
f 108//52 103//52 102//52
usemtl MAT_1_0
f 101//5 105//5 107//5
f 107//5 102//5 101//5
o Building Anglerverein Ingolstadt
vn  -0.9833308979178031 0.0 -0.1818250400802019
usemtl MAT_0_0
v  -111.89 7.5 81.558
v  -110.165 7.5 72.229
v  -110.165 0.0 72.229
f 109//53 110//53 111//53
v  -111.89 0.0 81.558
f 111//53 112//53 109//53
vn  -0.16136578748535843 0.0 0.986894666430633
v  -108.243 7.5 81.958
v  -108.243 0.0 81.958
v  -103.546 0.0 82.726
f 113//54 114//54 115//54
v  -103.546 7.5 82.726
f 115//54 116//54 113//54
vn  -0.10902538695190771 0.0 0.9940389655340413
f 114//55 113//55 109//55
f 109//55 112//55 114//55
vn  0.9903508267402646 0.0 0.1385829714462577
v  -102.247 7.5 73.443
f 117//56 116//56 115//56
v  -102.247 0.0 73.443
f 115//56 118//56 117//56
vn  0.1515506053276562 0.0 -0.9884494999871369
f 110//57 117//57 118//57
f 118//57 111//57 110//57
usemtl MAT_1_0
f 113//5 116//5 117//5
f 117//5 110//5 109//5
f 109//5 113//5 117//5
o Building11
vn  -0.8590794972253012 0.0 0.511842180214882
usemtl MAT_0_0
v  -71.438 7.5 192.908
v  -75.782 7.5 185.617
v  -75.782 0.0 185.617
f 119//58 120//58 121//58
v  -71.438 0.0 192.908
f 121//58 122//58 119//58
vn  -0.20690866551275647 0.0 0.9783602629582471
v  -66.388 7.5 193.976
f 123//59 119//59 122//59
v  -66.388 0.0 193.976
f 122//59 124//59 123//59
vn  0.9830967439274694 0.0 0.18308684299863762
v  -64.686 7.5 184.837
f 125//60 123//60 124//60
v  -64.686 0.0 184.837
f 124//60 126//60 125//60
vn  0.17075801743234242 0.0 -0.985312995693539
v  -70.462 7.5 183.836
f 127//61 125//61 126//61
v  -70.462 0.0 183.836
f 126//61 128//61 127//61
vn  0.9953091609113219 0.0 0.09674540922441832
v  -69.038 7.5 169.186
f 129//62 127//62 128//62
v  -69.038 0.0 169.186
f 128//62 130//62 129//62
vn  0.08169615686418857 0.0 -0.9966572820953158
v  -74.601 7.5 168.73
f 131//63 129//63 130//63
v  -74.601 0.0 168.73
f 130//63 132//63 131//63
vn  -0.9975634503653968 0.0 -0.06976505210407598
f 120//64 131//64 132//64
f 132//64 121//64 120//64
usemtl MAT_1_0
f 127//5 129//5 131//5
f 131//5 120//5 119//5
f 119//5 123//5 125//5
f 127//5 131//5 119//5
f 119//5 125//5 127//5
o Building12
vn  -0.9705890582018126 0.0 -0.24074235210888453
usemtl MAT_0_0
v  -188.069 7.5 53.75
v  -185.573 7.5 43.687
v  -185.573 0.0 43.687
f 133//65 134//65 135//65
v  -188.069 0.0 53.75
f 135//65 136//65 133//65
vn  -0.24213242480043629 0.0 0.9702432111899887
v  -173.347 7.5 57.424
f 137//66 133//66 136//66
v  -173.347 0.0 57.424
f 136//66 138//66 137//66
vn  0.9705274729360481 0.0 0.24099050661046412
v  -170.851 7.5 47.372
f 139//67 137//67 138//67
v  -170.851 0.0 47.372
f 138//67 140//67 139//67
vn  0.24281469007015277 0.0 -0.9700726912382059
f 134//68 139//68 140//68
f 140//68 135//68 134//68
usemtl MAT_1_0
f 133//5 137//5 139//5
f 139//5 134//5 133//5
o Building13
vn  -0.21958142005041584 0.0 0.9755941779083364
usemtl MAT_0_0
v  -363.162 7.5 196.993
v  -370.875 7.5 195.257
v  -370.875 0.0 195.257
f 141//69 142//69 143//69
v  -363.162 0.0 196.993
f 143//69 144//69 141//69
vn  0.9756726380920808 0.0 0.21923253243631416
v  -361.166 7.5 188.11
f 145//70 141//70 144//70
v  -361.166 0.0 188.11
f 144//70 146//70 145//70
vn  0.21806805686404268 0.0 -0.975933564632112
v  -368.886 7.5 186.385
f 147//71 145//71 146//71
v  -368.886 0.0 186.385
f 146//71 148//71 147//71
vn  -0.9757790537723192 0.0 -0.21875840148254241
f 142//72 147//72 148//72
f 148//72 143//72 142//72
usemtl MAT_1_0
f 141//5 145//5 147//5
f 147//5 142//5 141//5
o Building14
vn  -0.921285646093815 0.0 -0.3888865622537014
usemtl MAT_0_0
v  253.62 7.5 230.254
v  257.224 7.5 221.716
v  257.224 0.0 221.716
f 149//73 150//73 151//73
v  253.62 0.0 230.254
f 151//73 152//73 149//73
vn  -0.3895930995663791 0.0 0.9209870882755422
v  268.357 7.5 236.488
f 153//74 149//74 152//74
v  268.357 0.0 236.488
f 152//74 154//74 153//74
vn  0.9210148867167779 0.0 0.38952737830103906
v  271.968 7.5 227.95
f 155//75 153//75 154//75
v  271.968 0.0 227.95
f 154//75 156//75 155//75
vn  0.3894361905149324 0.0 -0.9210534476984588
f 150//76 155//76 156//76
f 156//76 151//76 150//76
usemtl MAT_1_0
f 153//5 155//5 150//5
f 150//5 149//5 153//5
o Building15
vn  -0.9098528364473516 0.0 -0.41493109790507227
usemtl MAT_0_0
v  119.075 7.5 135.892
v  122.898 7.5 127.509
v  122.898 0.0 127.509
f 157//77 158//77 159//77
v  119.075 0.0 135.892
f 159//77 160//77 157//77
vn  -0.41491158314272436 0.0 0.909861735745601
v  139.969 7.5 145.42
f 161//78 157//78 160//78
v  139.969 0.0 145.42
f 160//78 162//78 161//78
vn  0.9097931625348733 0.0 0.41506192478327086
v  143.793 7.5 137.038
f 163//79 161//79 162//79
v  143.793 0.0 137.038
f 162//79 164//79 163//79
vn  0.4149311925057551 0.0 -0.9098527933054621
f 158//80 163//80 164//80
f 164//80 159//80 158//80
usemtl MAT_1_0
f 161//5 163//5 158//5
f 158//5 157//5 161//5
o Building AZUR Reception
vn  -0.9811922284449428 0.0 -0.1930331858496025
usemtl MAT_0_0
v  -52.099 7.5 192.641
v  -50.485 7.5 184.437
v  -50.485 0.0 184.437
f 165//81 166//81 167//81
v  -52.099 0.0 192.641
f 167//81 168//81 165//81
vn  -0.1940093144496179 0.0 0.9809996870064686
v  -35.888 7.5 195.847
f 169//82 165//82 168//82
v  -35.888 0.0 195.847
f 168//82 170//82 169//82
vn  0.9810644759534828 0.0 0.19368142405021269
v  -34.266 7.5 187.631
f 171//83 169//83 170//83
v  -34.266 0.0 187.631
f 170//83 172//83 171//83
vn  0.19321853697483035 0.0 -0.9811557455212226
f 166//84 171//84 172//84
f 172//84 167//84 166//84
usemtl MAT_1_0
f 169//5 171//5 166//5
f 166//5 165//5 169//5
o Building16
vn  -0.8177254722453573 0.0 -0.5756084190151385
usemtl MAT_0_0
v  223.347 7.5 351.53
v  226.818 7.5 346.599
v  226.818 0.0 346.599
f 173//85 174//85 175//85
v  223.347 0.0 351.53
f 175//85 176//85 173//85
vn  -0.635657331952012 0.0 0.7719713442451408
v  234.73 7.5 360.903
f 177//86 173//86 176//86
v  234.73 0.0 360.903
f 176//86 178//86 177//86
vn  0.8056174691998911 0.0 0.5924360668628832
v  238.201 7.5 356.183
f 179//87 177//87 178//87
v  238.201 0.0 356.183
f 178//87 180//87 179//87
vn  0.6440695210539188 0.0 -0.7649669614103447
f 174//88 179//88 180//88
f 180//88 175//88 174//88
usemtl MAT_1_0
f 177//5 179//5 174//5
f 174//5 173//5 177//5
o Building17
vn  -0.9697011560067751 0.0 -0.24429422432616762
usemtl MAT_0_0
v  404.458 7.5 -137.921
v  408.216 7.5 -152.838
v  408.216 0.0 -152.838
f 181//89 182//89 183//89
v  404.458 0.0 -137.921
f 183//89 184//89 181//89
vn  -0.24450159954012898 0.0 0.969648888939867
v  415.364 7.5 -135.171
f 185//90 181//90 184//90
v  415.364 0.0 -135.171
f 184//90 186//90 185//90
vn  0.9697476579926655 0.0 0.2441095651910023
v  419.122 7.5 -150.1
f 187//91 185//91 186//91
v  419.122 0.0 -150.1
f 186//91 188//91 187//91
vn  0.2434980726934961 0.0 -0.9699013808602156
f 182//92 187//92 188//92
f 188//92 183//92 182//92
usemtl MAT_1_0
f 181//5 185//5 187//5
f 187//5 182//5 181//5
o Building Wirtshaus am Auwaldsee
vn  -0.9756822964064185 0.0 -0.21918954463910426
usemtl MAT_0_0
v  -123.676 7.5 200.778
v  -111.875 7.5 148.248
v  -111.875 0.0 148.248
f 189//93 190//93 191//93
v  -123.676 0.0 200.778
f 191//93 192//93 189//93
vn  -0.2193251938871937 0.0 0.9756518125470505
v  -107.288 7.5 204.462
f 193//94 189//94 192//94
v  -107.288 0.0 204.462
f 192//94 194//94 193//94
vn  0.9757025001182414 0.0 0.21909959211055793
v  -104.786 7.5 193.32
f 195//95 193//95 194//95
v  -104.786 0.0 193.32
f 194//95 196//95 195//95
vn  -0.22052687993075126 0.0 0.9753808975103049
v  -97.696 7.5 194.923
f 197//96 195//96 196//96
v  -97.696 0.0 194.923
f 196//96 198//96 197//96
vn  0.9756607751088757 0.0 0.21928532078994242
v  -93.763 7.5 177.424
f 199//97 197//97 198//97
v  -93.763 0.0 177.424
f 198//97 200//97 199//97
vn  0.21974247520316811 0.0 -0.9755579145245991
v  -104.045 7.5 175.108
f 201//98 199//98 200//98
v  -104.045 0.0 175.108
f 200//98 202//98 201//98
vn  0.9756846863103749 0.0 0.21917890614615593
v  -101.682 7.5 164.589
f 203//99 201//99 202//99
v  -101.682 0.0 164.589
f 202//99 204//99 203//99
vn  -0.21916507151752063 0.0 0.9756877940338907
v  -93.455 7.5 166.437
f 205//100 203//100 204//100
v  -93.455 0.0 166.437
f 204//100 206//100 205//100
vn  0.9757038359673368 0.0 0.21909364317255894
v  -90.453 7.5 153.068
f 207//101 205//101 206//101
v  -90.453 0.0 153.068
f 206//101 208//101 207//101
vn  0.21951436251695425 0.0 -0.9756092684311559
f 190//102 207//102 208//102
f 208//102 191//102 190//102
usemtl MAT_1_0
f 197//5 199//5 201//5
f 203//5 205//5 207//5
f 190//5 189//5 193//5
f 195//5 197//5 201//5
f 203//5 207//5 190//5
f 190//5 193//5 195//5
f 201//5 203//5 190//5
f 190//5 195//5 201//5
o Building18
vn  -0.9805715485219187 0.0 -0.1961617654624015
usemtl MAT_0_0
v  -242.847 7.5 -287.117
v  -231.273 7.5 -344.973
v  -231.273 0.0 -344.973
f 209//103 210//103 211//103
v  -242.847 0.0 -287.117
f 211//103 212//103 209//103
vn  -0.1960740634924953 0.0 0.9805890890814262
v  -224.918 7.5 -283.532
f 213//104 209//104 212//104
v  -224.918 0.0 -283.532
f 212//104 214//104 213//104
vn  0.9805487220537864 0.0 0.19627583569733334
v  -213.337 7.5 -341.388
f 215//105 213//105 214//105
v  -213.337 0.0 -341.388
f 214//105 216//105 215//105
vn  0.19600048066355985 0.0 -0.9806037994927683
f 210//106 215//106 216//106
f 216//106 211//106 210//106
usemtl MAT_1_0
f 210//5 209//5 213//5
f 213//5 215//5 210//5
o Building19
vn  -0.9812216957334234 0.0 -0.1928833425208747
usemtl MAT_0_0
v  -366.523 7.5 -359.423
v  -350.018 7.5 -443.386
v  -350.018 0.0 -443.386
f 217//107 218//107 219//107
v  -366.523 0.0 -359.423
f 219//107 220//107 217//107
vn  -0.19323437645486594 0.0 0.9811526261270972
v  -338.033 7.5 -353.812
f 221//108 217//108 220//108
v  -338.033 0.0 -353.812
f 220//108 222//108 221//108
vn  0.9811885057079361 0.0 0.19305210764616734
v  -321.513 7.5 -437.775
f 223//109 221//109 222//109
v  -321.513 0.0 -437.775
f 222//109 224//109 223//109
vn  0.19313648595569038 0.0 -0.9811719002257899
f 218//110 223//110 224//110
f 224//110 219//110 218//110
usemtl MAT_1_0
f 221//5 223//5 218//5
f 218//5 217//5 221//5
o Building20
vn  -0.9825290799006504 0.0 -0.18610912699161586
usemtl MAT_0_0
v  -308.09 7.5 -254.109
v  -304.986 7.5 -270.496
v  -304.986 0.0 -270.496
f 225//111 226//111 227//111
v  -308.09 0.0 -254.109
f 227//111 228//111 225//111
vn  -0.18589658951132043 0.0 0.982569314607402
v  -240.366 7.5 -241.296
f 229//112 225//112 228//112
v  -240.366 0.0 -241.296
f 228//112 230//112 229//112
vn  0.9824812177195327 0.0 0.1863616291738839
v  -237.262 7.5 -257.66
f 231//113 229//113 230//113
v  -237.262 0.0 -257.66
f 230//113 232//113 231//113
vn  0.18621872190059668 0.0 -0.9825083142720514
f 226//114 231//114 232//114
f 232//114 227//114 226//114
usemtl MAT_1_0
f 231//5 226//5 225//5
f 225//5 229//5 231//5
o Building21
vn  -0.9844456676643162 0.0 -0.1756892922660876
usemtl MAT_0_0
v  -353.841 7.5 -263.928
v  -351.141 7.5 -279.057
v  -351.141 0.0 -279.057
f 233//115 234//115 235//115
v  -353.841 0.0 -263.928
f 235//115 236//115 233//115
vn  -0.1758677733943283 0.0 0.9844137982989273
v  -308.787 7.5 -255.879
f 237//116 233//116 236//116
v  -308.787 0.0 -255.879
f 236//116 238//116 237//116
vn  0.9844456676643162 0.0 0.17568929226608793
v  -306.087 7.5 -271.008
f 239//117 237//117 238//117
v  -306.087 0.0 -271.008
f 238//117 240//117 239//117
vn  0.17586777339432894 0.0 -0.9844137982989273
f 234//118 239//118 240//118
f 240//118 235//118 234//118
usemtl MAT_1_0
f 239//5 234//5 233//5
f 233//5 237//5 239//5
o Building22
vn  -0.998033691663203 0.0 -0.06267974397776716
usemtl MAT_0_0
v  -357.217 7.5 -191.233
v  -356.285 7.5 -206.073
v  -356.285 0.0 -206.073
f 241//119 242//119 243//119
v  -357.217 0.0 -191.233
f 243//119 244//119 241//119
vn  -0.06267043445580969 0.0 0.9980342762877035
v  -232.587 7.5 -183.407
f 245//120 241//120 244//120
v  -232.587 0.0 -183.407
f 244//120 246//120 245//120
vn  0.998033691663203 0.0 0.06267974397776907
v  -231.655 7.5 -198.247
f 247//121 245//121 246//121
v  -231.655 0.0 -198.247
f 246//121 248//121 247//121
vn  0.06267043445580968 0.0 -0.9980342762877035
f 242//122 247//122 248//122
f 248//122 243//122 242//122
usemtl MAT_1_0
f 241//5 245//5 247//5
f 247//5 242//5 241//5
o Building23
vn  -0.9803019631308308 0.0 -0.19750458496409462
usemtl MAT_0_0
v  -419.122 7.5 88.693
v  -415.621 7.5 71.316
v  -415.621 0.0 71.316
f 249//123 250//123 251//123
v  -419.122 0.0 88.693
f 251//123 252//123 249//123
vn  -0.1980344172458896 0.0 0.9801950671096448
v  -408.708 7.5 90.797
f 253//124 249//124 252//124
v  -408.708 0.0 90.797
f 252//124 254//124 253//124
vn  0.980326959009398 0.0 0.19738047887110272
v  -407.027 7.5 82.448
f 255//125 253//125 254//125
v  -407.027 0.0 82.448
f 254//125 256//125 255//125
vn  -0.1986667985230944 0.0 0.9800670911547761
v  -392.474 7.5 85.398
f 257//126 255//126 256//126
v  -392.474 0.0 85.398
f 256//126 258//126 257//126
vn  0.980379437760323 0.0 0.19711965406004822
v  -390.661 7.5 76.381
f 259//127 257//127 258//127
v  -390.661 0.0 76.381
f 258//127 260//127 259//127
vn  0.1988713804963375 0.0 -0.9800255986551989
f 250//128 259//128 260//128
f 260//128 251//128 250//128
usemtl MAT_1_0
f 249//5 253//5 255//5
f 255//5 257//5 259//5
f 250//5 249//5 255//5
f 255//5 259//5 250//5
