# This file was created by OSM2World 0.5.0-SNAPSHOT - https://osm2world.org

# Projection information:
# Coordinate origin (0,0,0): lat 48.76332495, lon 11.47434835, ele 0
# North direction: (0.0, 0.0, -1.0)
# 1 coordinate unit corresponds to roughly 1 m in reality

mtllib Ingolstadt_Tile_10_8.obj.mtl

g Building
o Building Pionierhafen Technikgebäude
vn  -0.9795767376133607 0.0 -0.20107067197074052
usemtl MAT_0_0
v  -178.959 2.5 387.729
v  -175.87 2.5 372.68
v  -175.87 0.0 372.68
f 1//1 2//1 3//1
v  -178.959 0.0 387.729
f 3//1 4//1 1//1
vn  -0.20077056630095247 0.0 0.9796382902414518
v  -139.797 2.5 395.755
f 5//2 1//2 4//2
v  -139.797 0.0 395.755
f 4//2 6//2 5//2
vn  0.9795648950706681 0.0 0.20112835788418948
v  -136.627 2.5 380.316
f 7//3 5//3 6//3
v  -136.627 0.0 380.316
f 6//3 8//3 7//3
vn  0.2008553611765086 0.0 -0.9796209082531132
v  -144.772 2.5 378.646
f 9//4 7//4 8//4
v  -144.772 0.0 378.646
f 8//4 10//4 9//4
vn  0.9805438290796591 0.0 0.19630027828253352
v  -144.567 2.5 377.622
f 11//5 9//5 10//5
v  -144.567 0.0 377.622
f 10//5 12//5 11//5
vn  0.20097375498011835 0.0 -0.9795966260707473
v  -157.591 2.5 374.95
f 13//6 11//6 12//6
v  -157.591 0.0 374.95
f 12//6 14//6 13//6
vn  -0.9790609894043911 0.0 -0.20356713641080387
v  -157.885 2.5 376.364
f 15//7 13//7 14//7
v  -157.885 0.0 376.364
f 14//7 16//7 15//7
vn  0.20067071614096602 0.0 -0.9796587485872168
f 2//8 15//8 16//8
f 16//8 3//8 2//8
vn  0.0 1.0 0.0
usemtl MAT_1_0
f 2//9 1//9 5//9
f 5//9 7//9 9//9
f 9//9 11//9 13//9
f 15//9 2//9 5//9
f 5//9 9//9 13//9
f 13//9 15//9 5//9
o Building Rampe
vn  -0.19020079088329153 0.0 0.9817452109113496
usemtl MAT_0_0
v  -143.642 7.5 377.511
v  -155.075 7.5 375.296
v  -155.075 0.0 375.296
f 17//10 18//10 19//10
v  -143.642 0.0 377.511
f 19//10 20//10 17//10
vn  0.9816687784166659 0.0 0.19059488314729456
v  -142.101 7.5 369.574
f 21//11 17//11 20//11
v  -142.101 0.0 369.574
f 20//11 22//11 21//11
vn  0.19008861581711706 0.0 -0.9817669367710101
v  -153.541 7.5 367.359
f 23//12 21//12 22//12
v  -153.541 0.0 367.359
f 22//12 24//12 23//12
vn  -0.981830438429197 0.0 -0.1897603493196898
f 18//13 23//13 24//13
f 24//13 19//13 18//13
usemtl MAT_1_0
f 17//9 21//9 23//9
f 23//9 18//9 17//9
o Building0
vn  0.001058658759041715 0.0 -0.9999994396206588
usemtl MAT_0_0
v  157.973 7.5 -395.716
v  178.754 7.5 -395.694
v  178.754 0.0 -395.694
f 25//14 26//14 27//14
v  157.973 0.0 -395.716
f 27//14 28//14 25//14
vn  -0.9999996568749359 0.0 -8.284020826188832E-4
v  157.966 7.5 -387.266
f 29//15 25//15 28//15
v  157.966 0.0 -387.266
f 28//15 30//15 29//15
vn  -0.0010590664642636295 0.0 0.9999994391889548
v  178.739 7.5 -387.244
f 31//16 29//16 30//16
v  178.739 0.0 -387.244
f 30//16 32//16 31//16
vn  0.9999984244286387 0.0 0.0017751451321202317
f 26//17 31//17 32//17
f 32//17 27//17 26//17
usemtl MAT_1_0
f 25//9 29//9 31//9
f 31//9 26//9 25//9
o Building1
vn  -0.9999525222156721 0.0 -0.00974439913569609
usemtl MAT_0_0
v  166.771 7.5 -361.895
v  166.881 7.5 -373.183
v  166.881 0.0 -373.183
f 33//18 34//18 35//18
v  166.771 0.0 -361.895
f 35//18 36//18 33//18
vn  -0.010183277226183153 0.0 0.999948149088209
v  178.849 7.5 -361.772
f 37//19 33//19 36//19
v  178.849 0.0 -361.772
f 36//19 38//19 37//19
vn  0.9999525306260364 0.0 0.009743536041179711
v  178.959 7.5 -373.061
f 39//20 37//20 38//20
v  178.959 0.0 -373.061
f 38//20 40//20 39//20
vn  0.010100494835364439 0.0 -0.9999489887009642
f 34//21 39//21 40//21
f 40//21 35//21 34//21
usemtl MAT_1_0
f 33//9 37//9 39//9
f 39//9 34//9 33//9
o Building2
vn  -0.9999973852045427 0.0 -0.0022868283882511763
usemtl MAT_0_0
v  134.375 7.5 -371.369
v  134.382 7.5 -374.43
v  134.382 0.0 -374.43
f 41//22 42//22 43//22
v  134.375 0.0 -371.369
f 43//22 44//22 41//22
vn  -0.9999990272262911 0.0 0.0013948284739082313
v  134.367 7.5 -385.184
v  134.367 0.0 -385.184
f 42//23 45//23 46//23
f 46//23 43//23 42//23
vn  -0.003852381309805448 0.0 0.9999925795515904
v  146.056 7.5 -371.324
f 47//24 41//24 44//24
v  146.056 0.0 -371.324
f 44//24 48//24 47//24
vn  -0.9998471331228556 0.0 -0.017484575659898575
v  145.888 7.5 -361.717
f 49//25 47//25 48//25
v  145.888 0.0 -361.717
f 48//25 50//25 49//25
vn  -0.0029816582359727018 0.0 0.9999955548472023
v  157.291 7.5 -361.683
f 51//26 49//26 50//26
v  157.291 0.0 -361.683
f 50//26 52//26 51//26
vn  0.9999981256373914 0.0 0.0019361615903564391
v  157.357 7.5 -395.771
f 53//27 51//27 52//27
v  157.357 0.0 -395.771
f 52//27 54//27 53//27
vn  0.0010483090247477742 0.0 -0.9999994505239433
v  145.91 7.5 -395.783
f 55//28 53//28 54//28
v  145.91 0.0 -395.783
f 54//28 56//28 55//28
vn  -0.9998400286658393 0.0 0.017886225915309906
v  146.1 7.5 -385.162
f 57//29 55//29 56//29
v  146.1 0.0 -385.162
f 56//29 58//29 57//29
vn  -0.0034385542262180603 0.0 -0.9999940881549417
v  137.566 0.0 -385.195
f 59//30 46//30 45//30
v  137.566 7.5 -385.195
f 45//30 60//30 59//30
vn  0.003866856489516979 0.0 -0.9999925236824971
f 57//31 58//31 59//31
f 59//31 60//31 57//31
usemtl MAT_1_0
f 57//9 60//9 45//9
f 42//9 41//9 47//9
f 47//9 49//9 51//9
f 51//9 53//9 55//9
f 57//9 45//9 42//9
f 51//9 55//9 57//9
f 57//9 42//9 47//9
f 47//9 51//9 57//9
