# This file was created by OSM2World 0.5.0-SNAPSHOT - https://osm2world.org

# Projection information:
# Coordinate origin (0,0,0): lat 48.7501139, lon 11.4616533, ele 0
# North direction: (0.0, 0.0, -1.0)
# 1 coordinate unit corresponds to roughly 1 m in reality

mtllib Ingolstadt_Tile_9_6.obj.mtl

g Building
o Building0
vn  -0.865976592620508 0.0 -0.5000845338873968
usemtl MAT_0_0
v  -9.366 7.5 49.448
v  1.035 7.5 31.437
v  1.035 0.0 31.437
f 1//1 2//1 3//1
v  -9.366 0.0 49.448
f 3//1 4//1 1//1
vn  0.5002560296619528 0.0 -0.8658775345202457
v  -14.048 7.5 46.743
f 5//2 1//2 4//2
v  -14.048 0.0 46.743
f 4//2 6//2 5//2
vn  -0.8660582720660648 0.0 -0.4999430661444782
v  -22.614 7.5 61.582
f 7//3 5//3 6//3
v  -22.614 0.0 61.582
f 6//3 8//3 7//3
vn  -0.4999334606927508 0.0 0.8660638168632666
v  -5.086 7.5 71.7
f 9//4 7//4 8//4
v  -5.086 0.0 71.7
f 8//4 10//4 9//4
vn  0.8660945203465799 0.0 0.49988026748975367
v  1.769 7.5 59.823
f 11//5 9//5 10//5
v  1.769 0.0 59.823
f 10//5 12//5 11//5
vn  -0.501107238401538 0.0 0.86538519494014
v  4.653 7.5 61.493
f 13//6 11//6 12//6
v  4.653 0.0 61.493
f 12//6 14//6 13//6
vn  0.8659854800300705 0.0 0.5000691435962517
v  16.764 7.5 40.52
f 15//7 13//7 14//7
v  16.764 0.0 40.52
f 14//7 16//7 15//7
vn  0.5000767031838174 0.0 -0.8659811146513555
f 2//8 15//8 16//8
f 16//8 3//8 2//8
vn  0.0 1.0 0.0
usemtl MAT_1_0
f 5//9 7//9 9//9
f 11//9 13//9 15//9
f 15//9 2//9 1//9
f 1//9 5//9 9//9
f 11//9 15//9 1//9
f 1//9 9//9 11//9
o Building Seat Zentrum Ingolstadt
vn  -0.8514218416553402 0.0 -0.524481503536806
usemtl MAT_0_0
v  -82.074 7.5 4.687
v  -70.19 7.5 -14.605
v  -70.19 0.0 -14.605
f 17//10 18//10 19//10
v  -82.074 0.0 4.687
f 19//10 20//10 17//10
vn  -0.5242086479483934 0.0 0.8515898622083974
v  -62.851 7.5 16.52
f 21//11 17//11 20//11
v  -62.851 0.0 16.52
f 20//11 22//11 21//11
vn  -0.8517246975369569 0.0 -0.523989541504007
v  -66.645 7.5 22.687
f 23//12 21//12 22//12
v  -66.645 0.0 22.687
f 22//12 24//12 23//12
vn  -0.5244392419797942 0.0 0.8514478736080434
v  -47.885 7.5 34.242
f 25//13 23//13 24//13
v  -47.885 0.0 34.242
f 24//13 26//13 25//13
vn  0.8514985866482657 0.0 0.5243568984346499
v  -32.214 7.5 8.794
f 27//14 25//14 26//14
v  -32.214 0.0 8.794
f 26//14 28//14 27//14
vn  0.524571405175055 0.0 -0.8513664551018372
f 18//15 27//15 28//15
f 28//15 19//15 18//15
usemtl MAT_1_0
f 27//9 18//9 17//9
f 21//9 23//9 25//9
f 27//9 17//9 21//9
f 21//9 25//9 27//9
o Building Mechanische Werkstätte
vn  -0.8515689480449333 0.0 -0.524242622004016
usemtl MAT_0_0
v  35.092 7.5 26.872
v  62.689 7.5 -17.956
v  62.689 0.0 -17.956
f 29//16 30//16 31//16
v  35.092 0.0 26.872
f 31//16 32//16 29//16
vn  -0.5242689898709904 0.0 0.8515527149035763
v  54.476 7.5 38.806
f 33//17 29//17 32//17
v  54.476 0.0 38.806
f 32//17 34//17 33//17
vn  0.8515604674957303 0.0 0.524256397384384
v  82.074 7.5 -6.022
f 35//18 33//18 34//18
v  82.074 0.0 -6.022
f 34//18 36//18 35//18
vn  0.5242493779255043 0.0 -0.8515647889296045
f 30//19 35//19 36//19
f 36//19 31//19 30//19
usemtl MAT_1_0
f 35//9 30//9 29//9
f 29//9 33//9 35//9
o Building Mechanische Werkstätte
vn  -0.8425580837086887 0.0 -0.5386054915957896
usemtl MAT_0_0
v  9.483 7.5 3.885
v  36.802 7.5 -38.851
v  36.802 0.0 -38.851
f 37//20 38//20 39//20
v  9.483 0.0 3.885
f 39//20 40//20 37//20
vn  -0.5384924941609955 0.0 0.842630306678006
v  30.578 7.5 17.366
f 41//21 37//21 40//21
v  30.578 0.0 17.366
f 40//21 42//21 41//21
vn  0.8425670306703154 0.0 0.5385914953166341
v  57.896 7.5 -25.37
f 43//22 41//22 42//22
v  57.896 0.0 -25.37
f 42//22 44//22 43//22
vn  0.5385106194903877 0.0 -0.8426187232052696
f 38//23 43//23 44//23
f 44//23 39//23 38//23
usemtl MAT_1_0
f 37//9 41//9 43//9
f 43//9 38//9 37//9
o Building1
vn  -0.8383567579256583 0.0 -0.545121955566256
usemtl MAT_0_0
v  -35.811 7.5 -59.545
v  -20.61 7.5 -82.923
v  -20.61 0.0 -82.923
f 45//24 46//24 47//24
v  -35.811 0.0 -59.545
f 47//24 48//24 45//24
vn  -0.5448351223423054 0.0 0.8385431947504226
v  14.012 7.5 -27.173
f 49//25 45//25 48//25
v  14.012 0.0 -27.173
f 48//25 50//25 49//25
vn  0.838477213017109 0.0 0.5449366598523736
v  29.205 7.5 -50.55
f 51//26 49//26 50//26
v  29.205 0.0 -50.55
f 50//26 52//26 51//26
vn  0.5449084765722513 0.0 -0.8384955290040061
f 46//27 51//27 52//27
f 52//27 47//27 46//27
usemtl MAT_1_0
f 51//9 46//9 45//9
f 45//9 49//9 51//9
o Building2
vn  -0.8394405340360378 0.0 -0.5434515524104164
usemtl MAT_0_0
v  -53.529 7.5 -32.26
v  -38.791 7.5 -55.025
v  -38.791 0.0 -55.025
f 53//28 54//28 55//28
v  -53.529 0.0 -32.26
f 55//28 56//28 53//28
vn  -0.5432012847604005 0.0 0.8396025037091364
v  -3.391 7.5 0.178
f 57//29 53//29 56//29
v  -3.391 0.0 0.178
f 56//29 58//29 57//29
vn  0.8395582836016022 0.0 0.5432696277502834
v  11.34 7.5 -22.587
f 59//30 57//30 58//30
v  11.34 0.0 -22.587
f 58//30 60//30 59//30
vn  0.5432547501911269 0.0 -0.8395679105318262
f 54//31 59//31 60//31
f 60//31 55//31 54//31
usemtl MAT_1_0
f 53//9 57//9 59//9
f 59//9 54//9 53//9
o Building3
vn  -0.9001333360267807 0.0 -0.4356144825109685
usemtl MAT_0_0
v  24.008 7.5 55.804
v  29.961 7.5 43.503
v  29.961 0.0 43.503
f 61//32 62//32 63//32
v  24.008 0.0 55.804
f 63//32 64//32 61//32
vn  -0.435514946415956 0.0 0.900181499170199
v  34.754 7.5 61.003
f 65//33 61//33 64//33
v  34.754 0.0 61.003
f 64//33 66//33 65//33
vn  0.9000091546978508 0.0 0.43587099176253974
v  40.706 7.5 48.713
f 67//34 65//34 66//34
v  40.706 0.0 48.713
f 66//34 68//34 67//34
vn  0.43629405268672017 0.0 -0.8998041451283704
f 62//35 67//35 68//35
f 68//35 63//35 62//35
usemtl MAT_1_0
f 61//9 65//9 67//9
f 67//9 62//9 61//9
o Building4
vn  -0.8799723070507305 0.0 -0.4750249875783536
usemtl MAT_0_0
v  5.534 7.5 77.867
v  12.36 7.5 65.222
v  12.36 0.0 65.222
f 69//36 70//36 71//36
v  5.534 0.0 77.867
f 71//36 72//36 69//36
vn  -0.47519841574098787 0.0 0.879878665315426
v  14.892 7.5 82.921
f 73//37 69//37 72//37
v  14.892 0.0 82.921
f 72//37 74//37 73//37
vn  0.879799399192303 0.0 0.47534515584032466
v  21.718 7.5 70.287
f 75//38 73//38 74//38
v  21.718 0.0 70.287
f 74//38 76//38 75//38
vn  0.47599854056885293 0.0 -0.8794460696235569
f 70//39 75//39 76//39
f 76//39 71//39 70//39
usemtl MAT_1_0
f 75//9 70//9 69//9
f 69//9 73//9 75//9
