# This file was created by OSM2World 0.5.0-SNAPSHOT - https://osm2world.org

# Projection information:
# Coordinate origin (0,0,0): lat 48.74933435, lon 11.43242175, ele 0
# North direction: (0.0, 0.0, -1.0)
# 1 coordinate unit corresponds to roughly 1 m in reality

mtllib ingolstadt_cooked_perception_v1_b9e07465_window_osm.obj.mtl

g Elevator
o Elevator0
o Elevator1
g SurfaceArea
o SurfaceArea2
vn  0.0 1.0 0.0
usemtl MAT_0_0
v  142.75 0.0 257.459
v  141.664 0.0 256.535
v  140.644 0.0 258.205
f 1//1 2//1 3//1
v  137.495 0.0 263.693
v  132.019 0.0 274.067
f 3//1 4//1 5//1
v  127.182 0.0 283.05
v  124.767 0.0 282.594
v  124.694 0.0 285.811
f 6//1 7//1 8//1
v  124.092 0.0 310.166
v  134.889 0.0 305.502
f 8//1 9//1 10//1
v  135.19 0.0 296.954
v  131.579 0.0 290.987
f 10//1 11//1 12//1
v  136.137 0.0 284.798
v  138.75 0.0 282.694
v  141.407 0.0 280.546
f 13//1 14//1 15//1
v  149.694 0.0 275.837
v  156.762 0.0 270.94
f 15//1 16//1 17//1
v  150.244 0.0 263.771
f 17//1 18//1 1//1
f 1//1 3//1 5//1
v  128.914 0.0 283.062
f 19//1 6//1 8//1
f 8//1 10//1 12//1
f 15//1 17//1 1//1
f 1//1 5//1 19//1
f 19//1 8//1 12//1
f 13//1 15//1 1//1
f 1//1 19//1 12//1
f 12//1 13//1 1//1
