# This file was created by OSM2World 0.5.0-SNAPSHOT - https://osm2world.org

# Projection information:
# Coordinate origin (0,0,0): lat 48.74937585, lon 11.4726042, ele 0
# North direction: (0.0, 0.0, -1.0)
# 1 coordinate unit corresponds to roughly 1 m in reality

mtllib Ingolstadt_Tile_10_6.obj.mtl

g Building
o Building0
vn  -0.9626659207108011 0.0 0.27069230706103453
usemtl MAT_0_0
v  15.135 12.5 -15.212
v  3.068 12.5 -58.126
v  3.068 0.0 -58.126
f 1//1 2//1 3//1
v  15.135 0.0 -15.212
f 3//1 4//1 1//1
vn  0.28771447317431875 0.0 0.9577162324645146
v  48.928 12.5 -25.364
f 5//2 1//2 4//2
v  48.928 0.0 -25.364
f 4//2 6//2 5//2
vn  0.9576655682106522 0.0 -0.2878830656078413
v  36.098 12.5 -68.044
f 7//3 5//3 6//3
v  36.098 0.0 -68.044
f 6//3 8//3 7//3
vn  -0.2875872972401446 0.0 -0.9577544291028409
f 2//4 7//4 8//4
f 8//4 3//4 2//4
vn  0.0 1.0 0.0
usemtl MAT_1_0
f 1//5 5//5 7//5
f 7//5 2//5 1//5
o Building1
vn  -0.9616007943999995 0.0 0.27445202168920124
usemtl MAT_0_0
v  26.989 7.5 26.321
v  15.135 7.5 -15.212
f 9//6 10//6 4//6
v  26.989 0.0 26.321
f 4//6 11//6 9//6
vn  0.2872092740637383 0.0 0.9578678577401898
v  84.049 7.5 9.212
f 12//7 9//7 11//7
v  84.049 0.0 9.212
f 11//7 13//7 12//7
vn  0.9578634696005924 0.0 -0.2872239084838081
v  58.543 7.5 -75.848
f 14//8 12//8 13//8
v  58.543 0.0 -75.848
f 13//8 15//8 14//8
vn  -0.2869758879909406 0.0 -0.9579378057639291
v  36.098 7.5 -69.124
f 16//9 14//9 15//9
v  36.098 0.0 -69.124
f 15//9 17//9 16//9
vn  -0.9596060897288132 0.0 0.28134703224910135
v  48.928 7.5 -25.364
f 18//10 16//10 17//10
f 17//10 6//10 18//10
vn  -0.28771447317431875 0.0 -0.9577162324645145
f 10//11 18//11 6//11
f 6//11 4//11 10//11
usemtl MAT_1_0
f 10//5 9//5 12//5
f 12//5 14//5 16//5
f 18//5 10//5 12//5
f 12//5 16//5 18//5
o Building Mömax
vn  -0.9706774012621554 0.0 0.24038590366106816
usemtl MAT_0_0
v  93.349 7.5 1.364
v  84.585 7.5 -34.025
v  84.585 0.0 -34.025
f 19//12 20//12 21//12
v  93.349 0.0 1.364
f 21//12 22//12 19//12
vn  0.2506115445707363 0.0 0.9680877303880417
v  112.227 7.5 -3.523
f 23//13 19//13 22//13
v  112.227 0.0 -3.523
f 22//13 24//13 23//13
vn  -0.4553567404094647 0.0 0.8903090693482052
v  120.91 7.5 0.918
f 25//14 23//14 24//14
v  120.91 0.0 0.918
f 24//14 26//14 25//14
vn  0.2731840854597997 0.0 0.9619617744232318
v  171.592 7.5 -13.475
f 27//15 25//15 26//15
v  171.592 0.0 -13.475
f 26//15 28//15 27//15
vn  0.9597946539492959 0.0 -0.28070308557326457
v  156.186 7.5 -66.152
f 29//16 27//16 28//16
v  156.186 0.0 -66.152
f 28//16 30//16 29//16
vn  -0.2807647990681145 0.0 -0.9597766029677121
v  98.076 7.5 -49.153
f 31//17 29//17 30//17
v  98.076 0.0 -49.153
f 30//17 32//17 31//17
vn  -0.959681008024521 0.0 0.2810913780908965
v  101.092 7.5 -38.856
f 33//18 31//18 32//18
v  101.092 0.0 -38.856
f 32//18 34//18 33//18
vn  -0.28088177271165454 0.0 -0.95974237676491
f 20//19 33//19 34//19
f 34//19 21//19 20//19
usemtl MAT_1_0
f 29//5 31//5 33//5
f 33//5 20//5 19//5
f 23//5 25//5 27//5
f 27//5 29//5 33//5
f 33//5 19//5 23//5
f 23//5 27//5 33//5
o Building tedox
vn  -0.9471492219797422 0.0 0.3207933155525048
usemtl MAT_0_0
v  -161.103 7.5 59.65
v  -171.592 7.5 28.681
v  -171.592 0.0 28.681
f 35//20 36//20 37//20
v  -161.103 0.0 59.65
f 37//20 38//20 35//20
vn  0.32060783252183367 0.0 0.9472120236386633
v  -149.888 7.5 55.854
f 39//21 35//21 38//21
v  -149.888 0.0 55.854
f 38//21 40//21 39//21
vn  -0.9470988306504468 0.0 0.32094205860335034
v  -143.113 7.5 75.847
f 41//22 39//22 40//22
v  -143.113 0.0 75.847
f 40//22 42//22 41//22
vn  0.3207088432731495 0.0 0.9471778279955662
v  -74.302 7.5 52.548
f 43//23 41//23 42//23
v  -74.302 0.0 52.548
f 42//23 44//23 43//23
vn  0.9471561402236982 0.0 -0.3207728885622132
v  -91.565 7.5 1.575
f 45//24 43//24 44//24
v  -91.565 0.0 1.575
f 44//24 46//24 45//24
vn  -0.32080788991032433 0.0 -0.9471442856140163
f 36//25 45//25 46//25
f 46//25 37//25 36//25
usemtl MAT_1_0
f 45//5 36//5 35//5
f 39//5 41//5 43//5
f 45//5 35//5 39//5
f 39//5 43//5 45//5
o Building2
vn  -0.942437263881564 0.0 0.33438301937662956
usemtl MAT_0_0
v  -49.86 7.5 28.681
v  -63.431 7.5 -9.568
v  -63.431 0.0 -9.568
f 47//26 48//26 49//26
v  -49.86 0.0 28.681
f 49//26 50//26 47//26
vn  0.31530822769812916 0.0 0.9489893158228204
v  12.691 7.5 7.898
f 51//27 47//27 50//27
v  12.691 0.0 7.898
f 50//27 52//27 51//27
vn  0.9426968586880704 0.0 -0.3336504647376418
v  -1.284 0.0 -31.587
v  -1.284 7.5 -31.587
f 53//28 54//28 51//28
f 51//28 52//28 53//28
vn  0.9428783265981848 0.0 -0.33313730087068705
v  -2.986999999999999 0.0 -36.40699999999999
f 54//29 53//29 55//29
v  -2.986999999999999 7.5 -36.40699999999999
f 55//29 56//29 54//29
vn  -0.3338852131782546 0.0 -0.9426137408402827
v  -54.778 7.5 -18.062
v  -2.987 7.5 -36.407
v  -2.987 0.0 -36.407
f 57//30 58//30 59//30
v  -54.778 0.0 -18.062
f 59//30 60//30 57//30
vn  -0.94240787064481 0.0 0.3344658507930446
v  -53.067 7.5 -13.241
f 61//31 57//31 60//31
v  -53.067 0.0 -13.241
f 60//31 62//31 61//31
vn  -0.3340424239119499 0.0 -0.9425580401370671
f 48//32 61//32 62//32
f 62//32 49//32 48//32
usemtl MAT_1_0
f 58//5 57//5 61//5
f 61//5 48//5 47//5
f 47//5 51//5 54//5
f 54//5 58//5 61//5
f 61//5 47//5 54//5
o Building3
vn  -0.9418826317559231 0.0 0.3359421200095874
usemtl MAT_0_0
v  -82.867 7.5 10.436
v  -88.211 7.5 -4.547
v  -88.211 0.0 -4.547
f 63//33 64//33 65//33
v  -82.867 0.0 10.436
f 65//33 66//33 63//33
vn  0.3369446700186675 0.0 0.9415244496804166
v  -73.847 7.5 7.208
f 67//34 63//34 66//34
v  -73.847 0.0 7.208
f 66//34 68//34 67//34
vn  0.9418315348215792 0.0 -0.33608534632683507
v  -79.19 7.5 -7.765
f 69//35 67//35 68//35
v  -79.19 0.0 -7.765
f 68//35 70//35 69//35
vn  -0.33598582645978275 0.0 -0.9418670417941891
f 64//36 69//36 70//36
f 70//36 65//36 64//36
usemtl MAT_1_0
f 64//5 63//5 67//5
f 67//5 69//5 64//5
